{"glyphs":{"1":{"ha":463,"x_min":0,"x_max":0,"o":""},"\b":{"ha":0,"x_min":0,"x_max":0,"o":""},"\r":{"ha":694,"x_min":0,"x_max":0,"o":""},"\t":{"ha":694,"x_min":0,"x_max":0,"o":""},"@":{"ha":463,"x_min":0,"x_max":0,"o":""},"A":{"ha":1008,"x_min":8,"x_max":928,"o":"m 928 306 q 919 282 928 306 q 782 213 786 213 q 773 215 779 213 q 764 217 767 217 q 756 215 760 217 q 749 213 751 213 q 717 242 739 213 q 618 358 628 358 q 521 318 617 358 q 439 221 464 293 q 414 90 426 183 q 403 0 413 60 q 391 -13 401 -8 q 372 -22 381 -18 q 308 -57 372 -22 q 246 -99 276 -78 q 174 -139 183 -139 q 160 -128 164 -139 q 139 -117 156 -117 q 88 -43 122 -92 q 39 11 78 -31 q 8 49 8 44 q 14 59 8 51 q 21 71 19 67 q 33 124 25 88 q 50 163 40 136 q 86 304 60 210 q 106 351 93 319 q 186 639 132 447 q 188 668 185 649 q 204 711 194 683 q 232 865 214 763 q 261 1000 246 913 q 274 1029 265 1010 q 272 1046 272 1035 q 283 1063 275 1053 q 333 1081 315 1081 q 338 1081 338 1081 q 342 1079 339 1079 q 403 1100 346 1079 q 463 1121 460 1121 q 517 1075 482 1121 q 554 1038 531 1063 q 589 999 567 1024 q 589 993 589 996 q 593 988 589 988 q 597 989 596 988 q 603 990 599 990 q 626 969 615 990 q 638 936 636 947 q 647 897 640 913 q 686 817 661 869 q 736 718 717 750 q 788 613 761 675 q 824 543 800 590 q 854 464 833 517 q 897 363 874 426 q 913 332 899 351 q 928 306 928 313 m 569 979 q 471 1088 531 1019 q 461 1089 467 1089 q 446 1079 453 1089 q 433 1081 443 1081 q 386 1063 393 1081 q 354 1054 369 1063 q 363 1036 357 1047 q 460 939 418 976 l 456 935 q 358 1033 397 971 q 336 1051 346 1051 q 325 1042 322 1051 q 385 972 346 1018 q 408 933 393 957 q 436 917 421 917 q 494 950 460 917 q 401 1049 465 983 q 406 1050 404 1050 q 421 1035 413 1050 q 468 999 436 1026 q 475 983 469 993 q 511 946 489 971 q 569 979 549 961 m 286 847 q 268 888 281 863 q 261 872 261 874 q 286 847 279 858 m 261 818 l 261 828 l 257 828 l 257 818 l 261 818 m 250 725 q 244 749 249 735 q 238 740 238 749 q 250 725 238 731 m 260 718 l 256 725 l 251 724 l 256 718 l 260 718 m 893 306 q 856 408 893 324 q 819 479 843 433 q 786 565 808 511 q 711 711 760 617 q 679 785 699 739 q 593 951 664 818 q 517 922 572 950 q 482 910 500 914 q 456 894 460 903 q 424 817 442 865 q 367 546 406 726 q 349 501 360 529 q 332 410 344 468 q 306 299 317 360 q 290 261 300 285 q 267 171 289 256 q 254 104 264 149 q 248 87 254 100 q 242 69 242 74 q 258 38 242 54 q 242 29 239 29 q 236 33 242 29 l 226 33 q 238 1 229 22 q 222 -10 232 -4 q 197 -82 197 -75 q 204 -92 197 -85 q 368 4 283 -49 q 375 25 378 11 q 374 43 374 43 q 385 64 379 51 q 408 183 393 104 q 439 313 425 278 q 465 314 449 311 q 558 358 481 322 q 649 414 618 385 q 664 418 653 418 q 685 435 674 435 q 710 407 701 435 q 719 372 715 389 q 751 303 733 349 q 775 256 761 288 q 797 247 797 247 q 893 306 893 286 m 235 643 q 222 667 232 646 q 224 654 222 663 q 224 643 224 646 l 235 643 m 160 393 q 158 401 160 396 q 157 408 157 407 q 144 400 153 408 l 150 393 l 160 393 m 133 244 q 129 254 133 251 q 128 250 128 254 q 133 244 129 246 m 231 135 q 226 128 226 135 q 231 131 229 128 q 231 135 232 135 m 139 169 l 139 179 q 115 204 131 190 q 139 169 119 189 m 206 85 l 203 97 l 199 97 l 201 85 l 206 85 m 72 106 q 60 118 65 118 q 60 106 60 118 l 72 106 m 538 1001 q 522 1008 529 1000 q 507 1021 515 1015 q 482 1038 499 1026 q 456 1064 474 1046 l 456 1074 q 471 1060 460 1068 q 483 1056 475 1060 q 538 1001 496 1046 m 633 583 q 631 571 633 583 q 631 554 628 563 q 628 547 631 551 q 617 542 626 542 q 606 546 614 542 q 596 550 599 550 q 547 526 603 550 q 518 519 538 525 q 481 504 474 504 q 456 522 456 504 q 469 592 456 531 q 494 694 481 625 q 504 782 494 703 q 518 789 504 782 q 533 772 525 785 q 564 703 544 740 q 574 694 568 700 q 607 643 590 669 q 633 583 633 601 m 522 624 l 515 631 l 513 628 l 519 621 l 522 624 m 569 572 q 522 621 553 589 l 522 611 q 561 569 538 597 q 569 572 564 568 m 547 558 q 544 571 547 560 q 504 614 522 589 q 492 578 492 567 q 502 558 492 572 q 518 544 513 544 q 547 558 528 544 m 500 536 q 497 545 500 539 q 488 551 494 551 q 488 533 488 535 q 494 535 489 533 q 500 536 499 536 z "},"B":{"ha":821,"x_min":-14,"x_max":736,"o":"m 736 381 q 729 350 736 386 q 692 263 721 307 q 590 143 651 200 q 411 10 472 33 q 318 -42 372 -14 q 274 -67 304 -50 q 181 -104 233 -87 q 172 -122 172 -114 q 81 -54 144 -110 q -3 31 17 1 q -3 68 -1 60 q -9 73 -4 68 q -14 82 -14 78 q -5 97 -14 85 q 4 115 4 110 q 10 221 6 150 q 19 343 10 261 q 14 351 19 347 q 22 438 17 379 l 28 722 q 24 790 28 722 q 21 892 21 857 q 17 903 17 899 l 17 993 q 36 1011 24 1000 q 61 1013 44 1011 q 110 1033 76 1021 q 183 1055 144 1040 q 238 1072 222 1069 q 267 1088 246 1079 q 385 1104 346 1104 q 443 1097 422 1104 q 568 1017 517 1075 q 588 986 572 1004 q 611 974 594 982 q 651 935 624 960 q 658 917 653 928 q 690 821 690 869 q 685 772 690 794 q 646 675 667 713 q 619 632 640 664 q 601 603 601 606 q 636 572 601 589 q 665 558 650 565 q 694 535 686 549 q 721 464 717 501 q 731 443 725 458 q 736 381 736 407 m 528 1010 q 431 1065 515 1042 q 467 1026 442 1051 q 510 1007 496 1007 q 520 1008 513 1007 q 528 1010 528 1010 m 468 1008 q 413 1058 444 1026 q 375 1075 399 1075 q 344 1065 349 1075 q 370 1038 351 1057 q 396 1011 389 1019 l 381 1010 q 325 1063 363 1028 q 308 1064 322 1064 q 258 1054 294 1064 q 254 1049 258 1053 q 336 979 308 1001 l 329 972 q 308 984 321 975 q 267 1021 296 993 q 240 1044 242 1044 q 179 1028 218 1044 q 267 933 225 1000 q 468 1008 335 960 m 251 924 q 215 975 240 944 q 161 1021 179 1021 q 133 1000 146 1021 q 181 940 139 990 q 217 904 211 904 q 251 924 228 904 m 200 897 q 124 994 171 931 q 115 999 117 999 q 99 992 113 999 q 82 985 86 986 q 186 890 175 890 q 200 897 194 890 m 82 914 q 58 933 78 932 q 57 918 57 928 q 61 919 58 918 q 68 921 64 921 q 76 917 72 921 q 82 914 81 914 m 707 386 q 657 532 707 497 q 603 558 631 544 q 567 592 567 575 q 575 621 567 613 q 631 710 600 644 q 664 819 664 781 q 661 830 664 822 q 658 840 658 838 q 612 936 658 893 q 515 979 565 979 q 429 961 461 979 q 386 951 413 958 q 315 925 350 939 q 242 883 279 911 q 207 865 226 878 q 194 794 194 839 q 204 724 194 794 q 211 619 211 664 q 210 594 211 617 q 204 565 208 588 q 201 538 200 549 q 206 494 204 492 q 202 477 204 490 q 200 458 200 464 q 200 361 200 361 q 200 272 200 361 q 197 260 200 268 q 193 247 193 251 q 194 226 193 239 q 190 193 190 196 q 194 181 194 181 q 188 169 192 176 q 192 135 190 156 q 182 78 183 113 q 181 28 182 33 q 176 4 176 -1 l 176 -61 q 190 -71 185 -71 q 306 -17 199 -71 q 431 49 399 29 q 553 143 501 90 q 588 175 565 153 q 646 239 610 197 q 665 268 653 250 q 707 386 707 349 m 106 761 q 63 817 88 794 l 63 808 q 77 790 63 806 q 93 767 92 775 q 106 761 111 761 m 119 746 q 117 753 117 747 q 115 749 114 753 q 119 746 117 746 m 68 739 q 58 753 68 743 q 68 739 58 739 m 65 529 q 46 546 56 550 q 65 529 57 529 m 58 486 q 53 493 57 489 q 54 471 47 481 q 58 486 56 476 m 519 732 q 450 626 519 679 q 449 608 451 621 q 433 614 439 614 q 402 599 432 614 q 351 585 372 585 q 324 600 325 585 q 319 663 319 626 q 322 677 319 667 q 324 692 324 688 q 331 814 332 769 q 338 819 333 817 q 360 832 343 822 q 378 842 376 842 q 507 763 478 842 q 517 751 510 760 q 519 732 519 744 m 544 378 q 535 333 544 367 q 526 322 532 329 q 353 149 481 235 q 339 160 347 157 l 339 269 q 341 321 339 269 q 343 393 343 372 q 342 418 343 429 q 350 447 342 424 q 424 476 403 476 q 434 472 428 476 q 443 467 440 467 q 479 458 457 465 q 544 378 544 424 m 444 660 q 421 693 442 665 q 440 653 432 664 q 444 660 440 654 m 407 631 l 407 636 q 371 714 394 664 q 363 703 363 714 q 396 631 363 697 l 407 631 m 379 626 q 358 697 371 651 l 353 701 q 350 617 353 697 l 371 617 l 379 626 m 388 425 q 375 428 388 428 q 375 411 369 417 q 388 425 388 424 m 456 278 q 429 303 456 289 q 444 263 433 279 q 456 278 456 271 m 428 247 q 399 297 428 261 q 411 253 411 261 q 407 243 411 247 q 388 275 396 250 q 375 314 376 311 q 365 275 365 268 q 372 200 365 253 q 402 217 376 200 q 428 247 428 235 z "},"C":{"ha":904,"x_min":-8,"x_max":829,"o":"m 829 222 q 757 106 829 210 q 710 38 743 82 q 646 -24 686 17 q 581 -58 640 -28 q 501 -92 515 -92 l 456 -92 q 415 -89 424 -92 q 383 -71 400 -81 q 364 -58 378 -69 q 346 -47 350 -47 q 342 -49 342 -47 q 340 -50 343 -50 q 265 -15 321 -50 q 201 28 219 13 q 135 81 178 44 q 88 133 104 111 q 40 201 72 156 q 42 229 42 211 q 19 317 35 258 q -6 351 10 328 q 7 357 -4 353 q 14 365 14 361 q 3 379 14 368 q -8 394 -8 390 q -4 403 -8 400 q 8 410 6 408 l 8 488 q -6 511 4 496 q 7 533 7 522 q 24 663 11 578 q 63 803 35 714 q 82 846 69 825 q 210 1006 126 915 q 279 1061 236 1033 q 332 1090 314 1083 q 440 1108 389 1108 q 550 1067 468 1108 q 558 1057 553 1064 q 626 1007 576 1047 q 669 985 639 996 q 710 966 699 974 q 750 933 722 958 q 783 899 783 906 q 767 881 783 881 q 756 883 760 881 q 731 913 740 907 q 694 938 728 915 q 681 950 690 942 q 561 969 626 969 q 426 929 510 969 q 399 904 424 928 q 382 896 392 901 q 338 856 350 874 q 322 822 333 843 q 285 771 307 806 q 268 731 275 754 q 271 725 269 729 q 265 716 271 722 q 260 707 260 710 q 240 636 247 676 q 233 625 239 632 q 222 581 233 629 q 211 508 217 553 q 213 440 213 518 q 209 435 213 439 q 206 426 206 431 q 210 331 206 360 q 208 303 208 321 q 218 272 213 293 q 214 263 217 269 q 244 115 218 192 q 279 63 257 97 q 313 15 289 46 q 373 -31 333 -6 q 421 -60 413 -57 q 458 -64 429 -64 q 553 -44 511 -64 q 636 10 576 -33 q 704 82 667 32 q 794 218 794 201 q 718 296 794 226 q 682 256 701 286 q 653 210 668 233 q 622 167 639 188 q 569 117 593 129 q 497 93 525 93 q 450 99 463 93 q 400 133 433 104 q 343 221 351 176 q 328 328 338 257 q 315 388 322 347 q 313 453 313 415 q 322 511 313 464 q 335 590 325 538 q 375 692 357 656 q 425 758 396 733 q 481 791 443 772 q 536 810 518 810 q 614 779 572 810 q 669 749 656 749 q 693 769 672 749 q 735 824 714 789 q 774 871 757 858 l 800 871 l 800 861 q 763 822 786 849 q 724 758 750 799 q 685 710 710 742 q 674 706 682 706 q 626 733 660 706 q 593 761 610 747 q 536 782 564 782 q 485 757 522 782 q 442 732 464 746 q 408 697 421 718 q 385 638 396 675 q 359 557 363 569 q 351 517 356 544 q 340 453 340 442 q 357 303 340 449 q 365 250 360 285 q 381 225 367 247 q 472 288 426 244 q 535 371 518 332 q 546 382 540 374 q 546 396 544 386 q 568 410 553 399 q 588 422 583 422 q 615 415 603 422 q 701 344 646 389 q 715 342 707 344 q 794 269 740 319 q 815 239 797 267 q 824 232 818 235 q 829 222 829 229 m 588 1006 q 529 1046 578 1015 q 463 1079 476 1079 l 439 1079 q 464 1036 435 1067 q 513 990 488 1013 q 550 1001 535 1001 q 559 1000 554 1001 q 568 999 564 999 q 588 1006 575 999 m 492 990 q 456 1028 478 1004 q 418 1079 440 1049 q 343 1060 392 1075 l 343 1050 q 428 961 372 1019 q 450 974 436 967 q 492 990 464 982 m 418 960 q 365 1014 411 968 q 326 1049 332 1049 q 267 1011 301 1049 q 282 988 276 1003 q 290 968 290 968 q 321 929 301 953 q 343 906 340 906 q 418 960 350 906 m 335 893 q 317 918 335 901 q 293 942 304 931 q 256 992 271 969 q 246 996 244 996 q 225 981 242 992 q 217 964 217 975 q 224 943 217 951 q 301 851 251 911 q 335 893 335 893 m 289 836 q 249 895 289 843 q 201 947 210 947 q 161 904 193 947 q 129 858 146 882 q 200 799 154 842 q 242 760 240 760 q 253 769 244 760 q 261 786 261 779 q 185 874 261 797 q 163 888 176 878 l 163 892 l 172 894 q 215 864 189 885 q 242 829 218 861 q 269 804 257 807 q 289 836 289 832 m 239 736 q 225 756 239 743 q 139 842 185 788 q 126 846 132 846 q 110 833 117 846 q 107 813 104 821 q 226 708 147 778 q 239 736 239 728 m 643 254 q 629 267 643 261 q 643 254 635 263 m 222 685 l 106 799 l 93 799 q 88 772 93 786 l 213 658 q 222 685 215 668 m 582 276 q 563 292 571 292 q 582 276 585 276 m 204 631 l 204 640 l 189 656 q 204 631 194 640 m 174 668 q 85 751 142 704 q 76 728 76 732 q 110 699 76 725 q 168 656 160 663 q 171 662 168 657 q 174 668 174 667 m 615 214 q 551 274 588 247 q 601 203 572 250 l 597 197 q 561 227 586 200 q 525 256 536 254 q 583 172 547 226 q 615 214 608 192 m 193 588 l 193 599 q 169 618 183 610 q 193 588 181 597 m 99 664 q 65 692 88 675 q 63 685 65 689 q 99 664 81 671 m 576 165 q 515 247 576 174 q 493 265 501 263 q 486 243 485 253 q 557 150 506 228 l 567 150 q 576 165 576 158 m 99 615 q 71 649 93 621 q 54 661 61 661 l 54 642 q 99 615 69 632 m 547 139 q 511 194 540 157 q 469 240 479 240 q 436 222 465 240 q 390 197 403 201 q 492 122 433 122 q 547 139 497 122 m 100 546 q 49 601 85 586 q 71 571 53 588 q 100 546 99 549 z "},"D":{"ha":840,"x_min":-1,"x_max":764,"o":"m 764 578 q 751 433 764 483 q 731 376 742 394 q 717 354 725 371 q 681 269 700 310 q 414 -6 622 146 q 321 -61 363 -42 q 219 -92 286 -69 q 213 -97 218 -92 q 204 -101 208 -101 q 163 -81 203 -101 q 81 -32 104 -49 q 3 40 31 1 q -1 97 -1 46 q 4 299 -1 129 q 8 311 4 301 q 13 326 13 321 q 13 369 13 340 q 14 411 14 397 q 14 499 14 499 q 22 600 15 532 q 29 667 29 668 q 18 692 29 678 q 39 704 19 694 q 18 735 32 714 q 36 742 25 736 q 42 760 42 751 l 42 864 q 44 885 42 867 q 47 908 47 903 q 58 1036 53 951 q 67 1047 63 1040 q 69 1061 71 1053 q 94 1056 90 1056 q 174 1078 92 1056 q 293 1093 186 1081 q 301 1096 294 1093 q 313 1099 308 1099 q 414 1086 382 1099 q 546 1004 463 1068 q 585 965 574 983 q 590 940 585 957 q 647 889 596 931 q 678 850 663 876 q 699 817 686 839 q 732 746 711 794 q 764 578 764 647 m 528 978 q 482 1015 511 990 q 474 1017 479 1017 q 461 1029 468 1024 q 414 1056 443 1040 q 364 1061 399 1061 q 351 1060 361 1061 q 336 1058 340 1058 q 323 1063 333 1058 q 310 1068 313 1068 q 289 1066 306 1068 q 268 1064 272 1064 q 257 1058 264 1064 q 308 993 276 1036 q 304 992 306 990 q 228 1061 293 996 q 178 1049 217 1056 q 124 1031 140 1042 q 122 1024 122 1028 q 160 990 135 1004 q 190 971 186 976 q 197 958 194 965 q 218 940 206 954 l 213 933 q 229 939 225 939 q 232 953 229 950 q 240 951 235 953 q 246 950 246 950 q 182 1026 182 1031 q 186 1033 182 1029 q 235 985 197 1024 q 267 956 264 956 q 310 971 265 956 q 369 990 338 976 q 339 1044 358 1008 l 342 1044 q 374 1007 349 1036 q 396 986 392 986 q 419 988 399 986 q 443 989 440 989 q 479 984 446 989 q 528 978 513 979 m 106 978 q 94 978 100 989 l 106 978 m 197 794 q 194 808 206 803 q 197 794 189 803 m 136 846 q 124 863 133 856 q 136 846 129 849 m 738 585 q 718 699 738 626 q 685 794 701 758 q 636 863 669 829 q 574 919 604 892 q 531 943 565 928 q 482 958 496 958 q 478 957 479 958 q 474 956 478 956 q 462 960 471 956 q 449 964 453 964 q 329 949 388 964 q 289 928 319 946 q 256 917 278 925 q 244 908 251 913 q 231 774 231 808 q 233 765 231 771 q 233 757 235 760 q 231 729 231 738 q 226 683 231 714 q 222 642 224 649 q 222 608 222 642 q 220 583 222 600 q 218 563 218 565 q 228 467 218 513 q 233 460 228 464 q 238 453 238 457 q 233 443 238 450 q 228 433 228 436 q 224 358 224 411 q 228 353 224 354 q 232 350 232 351 q 225 321 225 338 q 231 306 225 317 q 238 292 238 294 q 233 283 238 288 q 228 276 228 279 q 222 243 224 264 q 215 113 215 99 l 215 -57 l 228 -57 q 313 -33 254 -51 q 356 -4 328 -24 q 408 26 378 7 q 497 94 453 60 q 575 174 549 136 q 593 192 583 181 q 644 261 613 215 q 719 431 701 369 q 738 585 738 493 m 83 596 q 63 621 72 607 l 50 621 l 50 607 q 83 596 50 607 m 69 556 q 50 569 67 564 q 58 556 53 564 l 69 556 m 136 461 l 129 468 q 136 461 133 461 m 199 400 q 143 451 181 432 q 194 393 161 428 q 199 400 194 396 m 51 472 q 44 482 57 482 q 51 472 44 478 m 190 167 q 160 195 179 178 q 132 221 140 213 q 186 149 150 193 l 190 167 m 58 239 q 33 261 44 258 q 41 247 32 254 q 58 239 50 239 m 188 51 l 181 60 l 178 56 l 185 50 l 188 51 m 63 153 q 33 185 49 179 l 31 171 q 63 153 46 169 m 174 -17 l 171 -8 l 167 -10 l 169 -17 l 174 -17 m 617 582 q 613 572 617 579 q 610 563 610 565 q 601 500 608 542 q 565 414 586 447 q 521 338 543 375 q 463 267 493 296 q 394 207 442 243 q 343 176 338 176 q 325 192 325 176 q 327 199 325 194 q 329 206 329 204 q 335 515 329 307 q 340 721 340 588 l 340 760 q 340 793 340 776 q 351 833 342 814 q 365 835 354 833 q 379 838 376 838 q 436 828 413 838 q 569 719 518 794 q 617 582 617 651 m 507 685 q 505 710 507 685 q 504 746 503 735 q 444 790 482 771 q 392 806 417 806 q 378 804 388 806 q 369 801 369 803 q 366 796 368 800 q 364 788 364 792 l 364 647 q 364 590 364 649 q 364 501 364 531 q 360 457 364 479 q 358 455 360 456 q 356 450 356 454 q 359 441 356 447 q 363 432 363 435 q 479 557 451 507 q 507 685 507 607 m 467 472 l 467 479 l 461 479 l 461 472 l 467 472 m 510 401 q 476 438 501 419 q 488 425 483 431 q 510 401 492 415 m 504 363 l 504 372 q 436 454 483 401 q 426 426 426 440 q 497 357 460 401 l 504 363 m 488 340 q 428 414 488 340 q 415 418 421 418 q 440 380 418 408 q 465 333 463 351 l 457 333 q 423 383 440 358 q 390 413 406 408 l 390 400 q 411 361 390 385 q 446 321 443 325 q 442 319 443 319 q 383 401 386 358 q 356 386 371 397 q 365 231 358 374 l 375 231 q 440 281 392 235 q 488 340 488 326 z "},"E":{"ha":782,"x_min":-26,"x_max":672,"o":"m 671 111 q 658 96 667 106 q 535 24 618 69 q 503 17 522 22 q 415 -29 444 -17 q 360 -60 399 -40 q 343 -61 353 -60 q 256 -106 299 -83 q 174 -131 200 -133 q 147 -108 165 -124 q 129 -85 140 -100 q 86 -50 114 -72 q 22 10 67 -29 q -1 26 11 14 q -10 79 -10 50 l 0 383 q -10 406 -4 392 q -1 413 -7 411 q 6 424 6 415 q -8 444 6 432 q -26 464 -17 454 l -26 472 q 8 472 -22 476 q 13 503 13 488 q 0 542 13 517 q 14 558 13 547 q 33 746 18 617 q 35 807 33 767 q 49 869 40 828 q 47 939 50 908 q 64 938 57 939 q 72 938 71 938 q 93 943 69 938 q 164 964 117 949 q 193 982 174 971 q 229 993 206 986 q 235 998 231 993 q 242 1003 239 1003 q 247 1000 246 1003 q 251 997 249 997 q 315 1031 243 997 q 475 1086 417 1078 q 488 1090 478 1086 q 501 1093 497 1093 q 516 1083 508 1093 q 525 1074 524 1074 q 599 1013 549 1051 q 649 1003 604 1008 q 647 960 647 983 q 657 836 657 860 q 618 794 657 813 q 576 781 597 788 q 476 729 549 768 q 408 707 453 724 q 360 676 368 685 q 353 644 353 668 q 361 633 353 633 q 412 653 371 633 q 475 674 453 674 q 515 654 488 674 q 538 622 522 642 q 581 590 544 617 q 588 561 583 581 q 596 457 596 482 q 588 425 596 436 q 563 403 586 424 q 578 389 568 399 q 585 372 579 383 q 651 311 599 354 q 664 279 656 300 q 671 217 672 246 l 671 111 m 579 982 l 490 1064 l 475 1064 q 472 1057 472 1060 q 490 1032 472 1050 q 508 1013 500 1022 q 528 986 517 1004 l 525 985 q 458 1046 493 1011 q 453 1061 450 1054 q 428 1056 443 1060 q 490 999 471 1021 q 532 951 532 951 q 579 982 542 951 m 518 949 q 440 1033 493 978 q 428 1042 433 1038 q 424 1053 422 1046 q 365 1026 393 1042 q 371 1008 365 1015 q 417 965 389 992 q 429 958 422 963 q 474 919 474 919 q 515 940 469 919 q 518 949 518 942 m 460 914 q 403 963 431 938 q 357 1014 371 990 q 347 1019 353 1019 q 319 1007 338 1019 q 361 953 319 990 q 397 917 397 921 q 394 913 397 911 q 347 942 357 935 q 321 974 338 950 q 301 997 304 997 q 285 990 299 997 q 267 982 271 983 q 263 974 263 981 q 293 940 274 961 q 318 922 303 935 q 339 885 339 896 q 333 879 339 882 q 306 917 325 893 q 246 971 276 943 q 222 968 242 971 q 207 957 210 965 q 271 876 229 929 q 285 857 285 858 q 283 851 285 853 q 283 849 283 850 q 268 861 272 851 q 210 939 253 890 q 194 954 196 954 q 158 939 183 954 l 158 928 q 219 851 219 851 q 218 847 219 849 q 217 844 217 844 l 211 844 q 136 929 151 929 q 93 914 106 929 q 146 874 99 907 q 196 821 179 847 q 211 801 204 807 q 272 826 231 814 q 328 846 328 844 q 460 914 374 869 m 554 579 q 511 617 547 582 q 464 644 481 644 q 436 638 451 644 l 436 628 q 451 608 436 619 q 469 594 460 601 q 500 550 482 578 q 554 579 542 556 m 483 540 q 415 628 488 553 q 399 619 411 628 q 382 610 386 611 q 417 562 386 600 q 453 524 447 524 q 483 540 460 524 m 186 768 l 178 776 l 175 775 l 183 767 l 186 768 m 433 519 q 407 550 424 531 q 386 581 396 565 q 361 604 371 603 l 356 597 q 358 586 356 594 q 361 574 361 578 q 364 550 361 554 q 410 507 399 507 q 433 519 421 507 m 182 744 l 168 744 q 179 731 174 733 q 181 738 179 733 q 182 744 182 743 m 631 294 q 560 343 606 313 q 611 275 607 275 q 631 294 626 275 m 392 500 q 364 531 386 508 q 361 519 364 526 q 358 510 358 513 l 358 488 q 392 500 381 492 m 71 807 q 68 813 68 808 q 68 810 65 813 q 71 807 69 807 m 181 663 l 181 671 l 176 671 l 176 663 l 181 663 m 632 842 q 622 964 632 890 l 614 964 q 485 900 599 958 q 471 889 481 896 q 393 853 443 878 q 354 831 378 843 q 247 793 311 817 q 206 744 215 778 q 206 683 206 722 q 208 589 204 669 q 207 580 208 586 q 203 560 206 574 q 201 543 201 546 q 210 529 201 536 q 203 521 207 526 q 201 432 203 488 q 197 393 199 411 q 194 359 197 385 q 190 332 190 333 q 193 289 190 314 q 197 281 193 286 q 200 274 200 276 q 196 267 200 271 q 192 261 192 264 l 192 192 q 193 169 192 164 q 188 128 188 114 l 188 -54 q 196 -99 188 -53 l 204 -99 q 240 -86 218 -94 q 321 -46 271 -71 q 374 -28 340 -40 q 393 -15 382 -22 q 467 18 418 -6 q 496 39 478 28 q 610 94 503 40 q 626 111 617 97 q 631 179 628 143 q 632 211 632 211 l 632 253 l 624 253 q 614 235 621 246 q 603 239 600 239 q 556 210 606 239 q 471 172 525 197 q 385 133 442 156 q 375 125 382 131 q 340 117 344 117 q 324 131 324 117 q 338 145 324 133 q 353 160 353 157 q 329 197 353 158 l 326 163 q 328 156 329 158 q 314 146 310 146 q 301 156 310 146 l 301 261 q 313 276 313 272 q 313 290 313 282 q 353 331 332 318 q 554 432 415 371 q 572 474 572 439 q 567 507 572 476 q 561 550 563 538 q 544 542 556 551 q 533 533 533 533 q 419 486 492 517 q 339 440 393 471 q 329 476 329 444 q 329 500 329 497 q 332 508 329 503 q 335 515 335 513 q 332 583 335 574 q 328 591 332 586 q 324 597 324 596 q 353 703 324 689 q 428 739 376 715 q 503 774 453 747 q 567 803 525 783 q 625 828 572 806 q 632 842 632 832 m 592 267 q 562 312 583 282 q 535 342 540 342 q 492 328 540 342 q 489 319 489 326 q 550 242 510 293 q 574 251 557 240 q 592 267 582 260 m 553 376 q 547 397 551 383 l 539 397 q 532 392 535 397 q 529 388 529 388 q 354 304 443 356 q 343 290 349 300 l 351 290 q 461 346 388 308 q 492 353 472 347 q 553 376 511 360 m 57 694 l 54 701 l 50 700 l 53 694 l 57 694 m 543 232 q 471 319 539 236 q 418 292 446 321 q 460 239 429 279 q 486 207 483 207 q 543 232 481 207 m 469 204 q 401 285 407 285 q 375 276 393 285 q 353 263 357 267 q 379 222 351 254 q 421 176 421 176 q 469 204 440 182 m 53 583 l 53 588 q 39 599 51 593 q 53 583 43 586 m 167 472 q 161 467 161 472 q 163 460 161 463 q 164 458 164 458 q 167 472 175 464 m 172 407 q 169 414 172 414 q 169 411 168 414 q 172 407 171 407 m 346 232 q 338 254 340 246 q 331 238 332 243 q 346 232 342 232 m 401 167 l 401 175 q 351 226 392 186 q 350 221 351 225 q 349 214 349 217 q 358 182 349 206 q 378 158 368 158 q 401 167 375 158 m 131 382 q 97 414 122 394 q 131 382 108 401 m 151 364 q 132 379 144 371 q 144 361 138 372 q 151 364 146 361 m 146 286 q 82 350 140 299 q 61 360 75 353 q 146 286 90 331 m 168 144 q 165 165 165 153 q 149 160 158 160 q 168 144 161 147 m 83 219 l 76 222 l 75 219 l 82 217 l 83 219 m 76 224 l 68 232 l 65 229 l 74 221 l 76 224 m 67 233 l 50 244 l 49 242 l 64 231 l 67 233 m 47 246 l 38 250 l 38 246 l 46 243 l 47 246 m 32 201 l 32 206 l 22 206 l 22 201 l 32 201 m 29 150 q 19 150 24 156 l 29 150 m 161 -40 l 161 -29 l 157 -29 l 157 -40 l 161 -40 z "},"F":{"ha":713,"x_min":-4,"x_max":625,"o":"m 161 -40 l 157 -40 l 157 -31 l 161 -31 l 161 -40 m 625 865 q 603 814 625 832 q 572 804 592 811 q 464 750 538 789 q 406 725 444 743 q 351 676 351 692 l 351 660 q 357 656 356 656 q 378 660 360 656 q 399 665 396 665 q 438 638 421 665 q 500 564 443 628 q 510 529 510 554 q 508 515 510 528 q 506 496 506 501 q 504 428 504 463 q 493 358 503 386 q 476 347 488 354 q 400 301 449 331 q 381 296 394 301 q 356 250 360 278 q 353 201 354 244 q 346 144 351 189 q 343 89 342 108 q 340 54 343 79 q 338 15 338 25 q 335 -26 338 -15 q 319 -61 332 -53 q 301 -65 313 -62 q 267 -89 286 -72 q 250 -96 261 -90 q 196 -131 233 -107 q 169 -136 188 -136 q 146 -122 153 -136 q 71 -38 128 -89 q -1 42 14 13 q 0 76 0 53 q -2 80 0 76 q -4 88 -4 83 q -1 94 -4 90 q 1 101 1 99 l 14 271 q 15 364 14 303 q 31 457 19 392 q 40 517 40 514 l 40 892 q 50 921 40 899 q 68 943 60 943 q 74 942 71 943 q 81 940 78 940 q 122 958 78 940 q 272 1019 175 979 q 276 1026 274 1021 q 283 1031 279 1031 q 288 1031 286 1031 q 292 1029 289 1029 q 317 1042 294 1029 q 358 1063 344 1057 q 468 1100 458 1100 q 520 1070 486 1100 q 564 1021 554 1040 q 575 1011 568 1018 q 568 993 576 1001 q 587 994 574 992 q 601 997 600 997 q 621 976 618 997 q 618 951 621 981 q 621 888 615 919 q 625 865 625 863 m 543 1004 q 535 1017 543 1008 q 543 1004 535 1013 m 546 983 q 504 1018 528 994 q 463 1063 467 1057 q 450 1065 453 1065 q 422 1060 443 1065 q 396 1049 413 1056 l 396 1039 q 479 954 419 1014 q 468 946 476 946 q 417 989 456 946 q 376 1039 378 1032 q 318 1014 331 1028 q 325 993 318 997 q 396 933 374 963 q 404 910 404 922 q 403 906 404 904 q 292 999 301 999 q 246 983 274 999 l 246 975 q 311 899 267 957 q 319 888 319 885 q 318 883 319 882 l 313 883 q 231 967 268 932 q 213 969 226 969 q 153 946 208 969 q 146 933 151 942 q 140 938 142 938 q 114 926 133 938 q 104 914 103 919 q 132 888 114 903 q 217 821 174 851 q 217 813 217 817 q 246 829 229 815 q 193 888 217 867 q 158 925 158 919 q 160 931 158 929 q 183 917 181 919 q 200 894 197 907 q 260 829 222 888 q 546 983 435 894 m 456 565 q 411 624 443 582 q 392 629 406 631 q 418 597 401 618 q 451 560 438 568 q 456 565 454 561 m 425 550 q 372 631 385 631 q 354 614 354 631 q 368 579 354 594 q 389 563 375 574 q 404 542 396 542 q 425 550 396 542 m 182 778 q 161 797 172 789 q 182 778 168 789 m 153 807 q 108 846 129 832 q 153 807 150 807 m 96 836 q 82 846 92 840 q 88 829 83 840 q 96 836 90 829 m 382 535 l 382 544 q 369 561 378 547 q 357 568 364 569 l 357 556 q 368 528 357 543 q 382 535 374 531 m 200 718 q 157 764 174 743 q 196 713 169 742 q 200 718 196 714 m 122 776 l 118 786 l 115 785 l 118 776 l 122 776 m 594 901 l 594 963 l 578 963 q 500 919 572 963 q 465 894 486 908 q 379 853 457 889 q 228 781 336 836 q 225 772 226 778 q 225 725 229 761 q 222 674 221 686 q 213 588 213 654 q 214 576 213 583 q 215 565 215 568 q 213 494 215 529 q 210 460 210 458 q 211 443 210 467 q 213 381 213 419 q 204 310 208 354 q 204 211 206 276 q 199 96 194 119 q 193 86 197 93 q 188 42 192 64 q 189 26 188 36 q 190 10 190 13 q 188 -45 190 -17 q 185 -71 185 -74 q 196 -100 185 -83 q 243 -71 214 -85 q 299 -37 263 -64 q 308 1 308 -26 q 308 44 308 24 q 324 207 313 99 q 324 265 326 240 q 328 299 321 293 q 396 338 351 321 q 469 381 440 354 q 475 454 475 424 l 475 528 q 468 532 475 533 q 446 524 460 524 q 422 524 424 525 q 382 508 397 518 q 361 492 372 503 q 347 486 354 486 q 333 494 336 486 q 334 516 332 501 q 336 533 336 531 q 336 619 338 564 q 331 631 336 624 q 325 640 325 638 q 338 715 325 635 q 360 731 339 721 q 396 747 396 747 q 482 792 425 761 q 589 840 524 808 q 594 901 596 844 m 179 619 q 92 704 111 704 l 85 704 q 122 664 94 688 q 161 628 154 636 q 179 619 168 621 m 188 461 l 188 469 q 133 521 168 488 q 101 536 129 525 q 181 456 143 490 l 188 461 m 182 410 q 178 421 185 415 q 171 418 178 418 q 182 410 175 415 m 185 358 q 158 388 185 361 q 182 347 161 379 q 183 351 182 349 q 185 358 185 354 m 103 436 l 96 444 l 93 442 l 99 433 l 103 436 m 96 386 l 96 390 l 88 390 l 88 386 l 96 386 m 179 315 q 176 318 179 315 q 168 321 172 321 l 156 321 q 176 296 167 303 l 179 315 m 176 253 l 176 264 l 165 267 q 176 253 171 256 m 175 199 l 175 213 q 136 247 154 228 q 151 218 143 233 q 175 199 160 203 m 133 138 q 97 171 124 150 q 108 149 96 165 q 126 133 121 133 q 133 138 133 133 m 165 100 l 163 107 l 160 106 l 163 100 l 165 100 m 157 110 q 146 118 153 118 q 157 110 150 110 m 88 176 l 88 176 l 88 176 l 88 176 m 163 56 q 143 50 156 54 q 163 31 146 40 l 163 56 m 107 88 l 104 94 l 100 93 l 103 88 l 107 88 z "},"G":{"ha":849,"x_min":-21,"x_max":736,"o":"m 729 147 q 724 119 729 142 q 715 94 719 96 q 700 92 710 93 q 642 47 674 63 q 585 33 622 46 q 490 -39 554 8 q 444 -55 486 -43 q 386 -67 403 -67 l 364 -67 q 310 -56 339 -67 q 258 -22 293 -43 q 243 -6 253 -15 q 221 -1 236 -4 q 189 14 206 3 q 161 39 181 24 q 82 96 129 54 q 75 111 81 101 q 40 144 63 122 q 26 183 31 157 q 17 217 21 208 q -1 304 8 229 q -12 353 -6 321 q -11 392 -11 365 q -17 431 -12 404 q -21 461 -21 458 l -21 604 q -17 617 -21 596 q 3 717 -10 651 q 35 819 11 767 q 37 840 33 826 q 49 882 40 854 q 57 892 51 885 q 150 1038 72 971 q 222 1081 176 1060 q 308 1113 294 1113 q 324 1113 313 1113 q 338 1113 335 1113 q 378 1093 342 1113 q 429 1065 394 1083 q 447 1061 436 1064 q 521 1038 469 1047 q 583 1017 557 1031 q 669 947 596 1010 q 678 935 678 942 q 679 919 678 928 q 689 903 689 910 q 668 865 689 896 q 643 829 643 829 q 614 760 633 806 q 558 782 597 761 q 523 794 553 786 q 485 803 493 803 q 421 776 461 803 q 388 736 415 772 q 370 708 372 717 q 361 686 368 699 q 356 681 358 685 q 335 610 349 650 q 342 606 336 608 l 504 657 q 519 656 508 657 q 532 654 529 654 q 546 654 544 654 q 565 664 565 664 q 574 661 568 664 q 599 633 582 651 q 660 588 635 601 q 713 574 678 583 q 726 514 736 533 q 721 486 721 503 q 725 445 721 471 q 729 415 729 419 l 729 147 m 422 1031 q 381 1063 413 1036 q 363 1069 374 1065 q 354 1081 363 1069 q 333 1085 347 1085 l 314 1085 q 313 1081 314 1082 q 311 1075 311 1079 q 318 1063 311 1069 q 376 1006 375 1006 q 401 1015 383 1006 q 422 1031 419 1025 m 632 579 q 550 642 546 642 q 526 628 539 642 q 554 601 540 614 q 581 565 574 583 q 590 563 585 563 q 613 569 596 563 q 632 579 629 575 m 340 996 q 310 1038 328 1011 q 300 1074 307 1050 q 290 1082 296 1076 q 249 1065 275 1076 q 194 1038 231 1056 q 167 1017 192 1036 q 126 972 156 1008 q 92 910 92 928 q 134 865 92 907 q 188 815 176 824 l 196 815 q 204 832 199 821 q 125 910 125 904 q 125 915 125 914 q 126 918 126 918 l 133 918 q 208 849 158 896 q 228 885 228 868 q 207 929 228 899 q 175 965 189 956 q 144 979 164 971 q 146 986 144 983 q 147 990 147 989 l 157 990 q 210 953 181 990 q 243 903 211 953 q 283 953 258 919 q 226 1017 260 974 q 214 1029 221 1021 q 218 1036 215 1032 q 297 964 244 1010 q 340 996 329 985 m 571 558 q 497 628 517 628 q 456 610 478 628 q 483 593 467 604 q 525 531 497 569 q 571 558 542 540 m 507 529 q 474 572 499 544 q 433 608 444 608 q 418 600 429 608 q 404 586 407 592 q 440 550 410 579 q 463 524 463 526 q 457 515 463 519 q 406 558 425 531 q 383 582 390 582 q 367 580 381 582 q 351 578 354 578 q 328 585 335 578 q 325 563 322 568 q 329 564 326 563 q 336 564 332 564 q 347 558 343 564 q 400 507 381 519 q 424 490 428 490 q 433 496 426 490 q 442 501 439 501 q 507 529 485 511 m 186 790 q 181 803 186 797 q 90 879 90 879 l 82 879 q 65 835 76 865 q 107 810 81 826 q 169 761 164 761 q 181 772 175 761 q 186 790 186 783 m 704 156 l 704 419 q 699 464 704 424 q 693 507 693 504 q 694 522 693 510 q 696 539 696 533 q 667 551 694 539 q 631 542 671 551 q 464 476 586 532 q 433 450 453 465 q 425 397 425 425 q 433 347 425 371 q 486 366 450 351 q 525 381 522 381 q 553 363 536 381 q 419 160 529 160 l 406 160 q 389 165 401 160 q 369 174 372 172 q 360 182 365 176 q 281 313 300 207 q 275 324 279 317 q 271 335 271 332 l 271 428 q 274 454 271 431 q 276 486 276 478 q 283 517 276 494 q 289 551 289 539 q 285 574 289 564 q 297 589 290 579 q 328 676 315 644 q 371 763 350 738 q 488 828 426 828 q 600 790 507 828 q 619 836 607 807 q 660 908 660 913 q 589 981 660 938 q 493 1010 542 1010 q 443 1001 479 1010 q 431 993 438 997 q 315 938 401 985 q 301 924 311 932 q 269 897 275 908 q 228 825 253 871 q 193 738 217 796 q 193 728 194 732 q 171 676 186 710 q 169 656 171 668 q 136 532 144 579 q 136 510 136 525 q 129 469 129 482 q 131 458 129 465 q 133 450 133 451 q 136 397 136 424 q 140 380 136 392 q 143 364 143 368 q 149 271 140 318 q 163 247 154 263 q 158 217 160 236 q 182 156 168 197 q 203 96 186 138 q 236 35 214 74 q 343 -36 288 -26 q 356 -40 347 -37 q 367 -43 364 -43 q 430 -34 397 -43 q 481 -14 463 -25 q 553 40 518 11 q 576 67 558 44 q 594 85 592 85 q 607 78 599 85 q 618 72 615 72 q 654 90 626 72 q 696 103 682 108 q 697 138 696 117 q 701 147 697 140 q 704 156 704 153 m 163 731 q 133 765 163 740 q 90 801 113 783 q 58 815 81 811 q 53 801 53 801 q 131 724 53 788 q 157 713 132 722 q 163 731 163 725 m 144 686 q 119 704 131 707 q 132 692 121 696 q 144 686 138 689 m 106 714 q 83 746 104 719 q 54 772 61 772 l 46 772 l 43 764 q 106 714 43 758 m 140 650 q 118 672 136 660 q 128 650 121 663 l 140 650 m 78 711 q 38 743 64 726 q 35 738 38 742 q 78 711 50 726 m 506 276 l 494 276 q 489 254 494 265 q 506 276 496 257 m 47 685 q 35 708 39 693 q 28 701 33 708 q 47 685 35 694 m 119 594 q 103 608 110 604 q 101 605 103 607 q 99 599 99 603 q 106 588 99 594 q 117 581 114 581 l 119 594 m 486 236 q 450 257 475 235 q 414 282 425 279 q 471 221 444 251 q 477 222 472 221 q 483 224 482 224 q 486 236 483 233 m 386 325 q 349 367 386 331 q 303 408 313 403 q 299 371 299 392 q 315 271 299 342 q 325 251 319 264 q 350 265 333 260 q 351 285 350 282 q 357 283 353 285 q 365 283 361 283 q 376 306 367 289 q 386 325 386 322 m 431 236 l 418 247 l 417 244 l 428 233 l 431 236 m 458 204 q 435 226 446 222 q 458 204 444 201 m 435 193 q 382 260 428 218 l 376 251 q 392 226 376 249 q 417 193 413 200 q 426 190 431 190 q 435 193 431 190 m 107 501 l 104 503 l 99 492 l 101 490 l 107 501 m 404 194 q 369 244 392 211 q 340 225 356 233 q 394 190 375 190 q 404 194 400 190 m 43 496 q 13 528 35 507 l 13 519 q 43 496 38 494 z "},"H":{"ha":807,"x_min":1,"x_max":710,"o":"m 710 1017 q 699 965 697 997 q 699 910 699 915 q 694 736 697 853 q 682 638 693 682 q 674 613 681 629 q 675 611 674 613 q 675 607 675 610 l 675 449 q 671 397 675 432 l 668 176 q 656 113 668 132 q 618 101 631 106 q 575 68 604 88 q 504 47 531 47 q 482 60 500 47 q 456 74 472 63 q 363 161 399 124 q 358 186 361 169 q 356 244 353 210 q 360 304 357 274 q 357 315 360 307 q 326 304 343 307 q 315 285 315 296 q 315 182 315 182 q 317 174 315 179 q 319 167 319 169 l 319 14 q 317 -10 319 1 q 297 -31 313 -25 q 211 -79 249 -44 q 167 -100 207 -82 q 143 -110 146 -110 q 131 -108 121 -110 q 121 -111 124 -111 q 14 -22 115 -111 q 8 -12 8 -18 q 18 3 8 -6 q 7 17 18 3 q 3 37 6 24 q 1 53 1 50 l 15 350 q 15 413 15 407 q 8 423 14 415 q 3 433 3 431 q 10 442 3 432 q 8 538 8 428 l 8 692 q 13 717 8 694 q 18 743 18 740 q 8 760 18 751 q 19 776 8 763 q 18 802 19 785 q 17 826 17 819 q 20 881 17 844 q 24 935 24 918 q 36 943 28 943 q 39 942 39 943 q 43 942 39 942 q 164 997 57 942 q 183 1001 172 999 q 197 1017 194 1004 q 217 1022 203 1017 q 233 1026 231 1026 q 246 1021 243 1026 q 288 975 256 1001 q 346 929 346 929 q 360 936 365 936 q 365 935 364 936 q 369 933 365 933 q 381 944 378 933 q 388 996 385 964 q 388 1028 388 1013 q 400 1054 389 1046 q 490 1094 417 1068 q 539 1106 507 1099 q 564 1115 553 1110 q 572 1124 564 1117 q 582 1131 579 1131 q 593 1124 583 1131 q 710 1017 619 1078 m 651 1032 q 629 1047 628 1047 q 626 1044 626 1047 q 622 1042 625 1042 q 600 1061 611 1042 q 589 1085 594 1074 q 571 1089 571 1089 q 546 1078 557 1089 q 569 1054 556 1068 q 610 1019 601 1019 q 618 1019 613 1019 q 625 1021 624 1021 q 631 1019 628 1021 q 638 1017 635 1017 q 651 1032 651 1017 m 575 1011 q 551 1048 574 1017 q 519 1079 528 1079 q 489 1063 503 1079 q 510 1028 493 1054 q 538 997 531 997 q 555 1003 540 997 q 575 1011 569 1010 m 511 989 q 492 1024 510 994 q 465 1054 475 1054 q 452 1045 461 1054 q 443 1032 443 1036 q 464 1004 443 1028 q 489 981 485 981 q 511 989 483 981 m 485 933 q 475 943 485 938 q 485 933 482 932 m 422 989 q 417 997 421 992 q 408 978 410 992 q 416 983 410 979 q 422 989 422 988 m 476 782 q 440 831 476 800 q 476 782 453 817 m 315 922 q 258 963 296 946 q 271 938 263 953 l 267 933 q 230 960 249 938 q 207 983 211 983 q 192 971 197 983 q 242 911 242 943 q 239 907 242 904 l 231 907 q 165 965 188 965 q 143 958 154 965 l 143 950 q 178 903 156 932 q 201 883 188 896 q 201 868 203 876 q 315 922 231 890 m 474 629 l 469 629 q 468 617 463 622 q 474 629 474 619 m 190 869 q 151 908 179 874 q 121 943 124 943 q 101 933 111 943 q 134 890 108 917 q 164 853 160 863 l 172 853 q 190 869 188 864 m 453 585 q 432 585 450 585 q 399 615 418 585 q 372 644 379 644 q 357 626 357 644 q 357 613 357 614 q 378 593 365 606 q 407 561 406 561 q 433 570 414 561 q 453 585 451 579 m 92 904 q 83 918 90 907 l 72 918 q 92 904 85 907 m 150 804 l 150 815 q 133 819 146 824 q 150 804 139 813 m 376 560 q 357 588 369 569 q 354 582 357 585 q 357 551 353 564 l 365 551 q 376 560 371 554 m 64 836 q 46 869 50 856 q 43 857 43 863 q 53 836 43 844 l 64 836 m 678 942 q 672 1003 678 958 q 659 997 668 1001 q 646 993 650 993 q 639 994 643 993 q 632 994 635 994 q 536 969 597 994 q 528 883 528 879 q 521 733 533 839 q 515 713 519 729 q 513 689 511 696 q 508 628 514 657 q 504 589 504 613 q 485 558 504 558 q 480 560 481 558 q 475 561 479 561 q 441 547 472 561 q 407 532 410 532 q 399 534 404 532 q 392 536 394 536 q 365 526 389 536 q 339 517 342 517 q 328 549 328 517 q 329 563 328 551 q 331 579 331 575 q 331 650 329 608 q 343 781 335 697 q 346 808 343 789 q 349 829 349 828 q 347 844 349 835 q 344 857 344 853 q 339 897 346 871 q 299 888 331 899 q 254 876 282 885 q 215 843 251 875 q 175 800 175 810 q 176 782 175 797 q 178 761 178 767 q 182 722 178 756 q 182 682 185 700 q 181 647 179 672 q 194 632 194 638 q 181 617 194 629 q 178 592 179 607 q 178 429 174 488 q 176 383 179 414 q 172 339 172 349 q 177 323 172 328 q 190 307 182 318 q 174 293 183 297 q 169 239 169 276 l 165 -67 q 203 -50 181 -67 q 240 -24 222 -37 q 289 0 260 -18 q 297 118 297 97 q 295 125 297 121 q 293 132 293 129 l 293 275 q 292 289 293 276 q 292 304 290 299 q 308 333 293 317 q 336 354 324 350 q 454 385 371 368 q 460 387 456 385 q 468 389 465 389 q 472 388 471 389 q 476 386 474 386 q 503 394 481 386 q 517 378 506 388 q 528 365 528 368 q 526 358 528 363 q 524 354 524 354 q 514 279 514 299 q 515 240 514 233 q 512 232 515 239 q 508 222 508 225 q 510 199 508 219 q 513 172 513 179 q 508 150 513 165 q 504 132 504 135 q 506 126 504 129 q 508 124 508 124 q 513 79 504 88 l 522 79 q 575 106 535 79 q 635 139 624 135 q 640 172 642 156 q 644 238 640 168 q 644 326 647 310 q 642 353 642 346 q 645 392 642 363 q 649 424 649 422 l 649 486 q 657 640 649 532 q 671 781 664 676 q 675 878 672 810 q 678 942 678 942 m 156 717 q 117 754 140 729 q 156 717 135 719 m 496 349 q 493 354 496 354 l 485 354 l 485 343 q 493 338 489 338 q 494 342 493 339 q 496 349 496 344 m 53 707 q 40 721 47 713 q 53 707 46 704 m 53 669 q 33 688 42 685 q 35 672 33 679 q 36 664 36 664 q 53 669 42 669 m 44 639 q 33 661 40 658 q 44 639 35 653 m 47 536 q 35 546 47 546 q 47 536 44 536 m 110 257 l 107 264 l 103 263 l 106 257 l 110 257 m 146 211 q 142 224 144 217 q 117 246 133 232 l 117 236 q 127 218 117 232 q 140 201 138 204 q 142 185 142 197 l 146 211 m 140 136 q 117 163 126 157 q 140 136 121 150 m 138 89 q 69 153 114 117 q 138 89 97 122 m 136 7 q 117 19 122 19 q 136 7 131 4 z "},"I":{"ha":767,"x_min":-10,"x_max":647,"o":"m 647 97 q 644 56 647 82 q 631 36 643 44 q 583 17 597 17 q 582 17 581 17 q 579 18 582 18 q 493 -4 540 18 q 425 -28 461 -18 q 386 -36 410 -31 q 379 -42 383 -37 q 282 -72 318 -61 q 156 -104 169 -104 q 142 -101 154 -104 q 128 -97 131 -97 q 122 -99 124 -97 q 118 -100 121 -100 q 66 -60 113 -100 q 8 -17 19 -21 q -4 1 -4 -14 q 1 15 -4 4 q 7 28 7 25 q -4 49 7 36 l -4 56 q 0 58 -4 58 q 7 61 4 58 q 21 172 13 131 q 31 182 21 176 q 32 194 32 183 l 32 201 q 82 217 78 217 q 85 215 85 217 q 89 214 86 214 q 132 228 92 214 q 182 242 150 231 q 191 256 189 244 q 194 276 193 267 q 201 329 203 306 q 203 372 201 343 q 204 415 204 401 q 201 426 204 418 q 199 439 199 435 q 208 454 208 442 q 201 476 210 467 q 201 485 201 481 q 213 506 213 488 q 222 571 213 510 q 221 594 221 579 q 225 601 224 597 q 229 617 226 606 q 232 633 232 629 q 231 642 232 636 q 231 651 231 647 q 208 649 224 651 q 190 646 192 646 q 165 658 178 646 q 131 692 153 669 q 110 700 124 693 q 22 768 81 726 q 8 799 25 775 q -10 832 -10 822 q 1 844 -10 839 q 17 828 13 839 q 19 853 24 840 q 15 868 15 871 q 21 874 15 869 q 26 882 26 879 q 28 960 28 890 q 33 979 28 967 q 54 988 47 988 q 58 983 57 988 q 63 979 58 979 q 67 983 60 979 q 106 988 81 985 q 192 1018 133 999 q 272 1040 221 1028 q 282 1046 275 1043 q 433 1086 335 1060 q 458 1100 446 1093 q 492 1113 483 1113 q 505 1109 494 1113 q 521 1104 515 1106 q 533 1086 524 1097 q 625 1003 613 1039 q 643 821 643 953 q 628 800 643 813 q 610 785 614 788 q 565 776 606 783 q 524 751 536 772 q 510 694 513 729 q 507 636 508 665 q 506 585 506 618 l 506 507 q 504 501 506 504 q 503 496 503 499 l 503 346 q 508 342 507 342 q 515 344 510 342 q 522 347 519 347 q 563 317 535 347 q 594 285 578 300 q 639 239 610 269 q 647 97 647 128 m 575 1011 l 575 1021 q 485 1083 508 1083 q 454 1072 475 1083 q 425 1056 440 1064 q 479 996 479 996 q 476 989 479 992 l 468 989 q 413 1054 439 1010 q 378 1049 396 1051 q 350 1035 360 1046 q 386 994 356 1024 q 414 951 413 969 l 575 1011 m 404 950 q 332 1029 378 978 q 322 1033 326 1033 q 286 1028 304 1033 q 254 1014 275 1021 l 254 1004 q 300 964 278 985 q 335 922 328 939 q 404 950 358 925 m 314 921 q 264 972 296 939 q 242 1007 256 985 q 163 972 204 1001 q 218 886 185 940 q 228 883 221 883 q 258 894 240 883 q 201 975 201 974 q 203 979 201 979 q 242 946 229 957 q 271 903 265 922 l 289 903 q 314 921 303 903 m 197 879 q 167 929 192 896 q 133 963 143 963 q 121 954 128 963 q 197 879 122 951 m 160 790 q 151 801 160 792 q 160 790 151 786 m 621 85 l 621 182 q 614 217 621 185 l 579 217 q 569 213 576 217 q 561 210 563 210 q 518 193 542 206 q 496 179 517 193 q 474 171 482 171 q 464 182 464 171 q 472 193 464 185 q 479 204 479 201 q 476 213 479 207 q 472 221 472 218 q 474 257 471 233 q 476 290 476 281 l 476 356 q 478 395 476 357 q 482 451 481 433 q 482 601 481 506 q 496 739 483 642 q 508 771 497 744 q 565 797 511 778 q 619 844 619 817 q 615 873 619 847 q 610 911 611 899 q 611 940 611 921 q 599 992 610 958 l 586 992 q 565 982 583 992 q 544 972 546 972 q 539 974 540 972 q 535 975 538 975 q 456 943 524 975 q 381 910 382 911 q 189 832 249 875 l 189 674 l 197 674 q 240 686 213 676 q 245 696 242 694 q 254 697 249 697 q 262 696 257 697 q 269 694 267 694 q 301 703 272 694 q 342 714 329 711 q 347 708 344 713 q 347 675 347 696 q 346 604 346 644 q 350 599 350 599 l 350 172 q 340 139 350 160 q 325 125 335 126 q 172 86 225 117 q 171 65 172 78 q 165 58 169 63 q 167 26 167 47 q 167 -39 167 26 q 165 -44 167 -40 q 163 -50 163 -47 q 168 -76 163 -61 l 181 -76 q 268 -54 204 -76 q 354 -26 351 -28 q 367 -18 357 -24 q 446 0 397 -12 q 497 22 465 8 q 538 29 513 24 q 608 53 581 40 q 621 85 621 58 m 585 249 q 503 318 557 274 l 503 310 q 544 242 503 308 q 557 240 550 240 q 585 249 571 240 m 303 474 l 300 482 l 297 481 l 300 474 l 303 474 m 322 460 q 313 468 321 464 q 303 472 306 472 q 318 453 307 458 q 322 460 321 456 m 529 235 q 501 272 519 253 q 496 217 496 219 q 513 226 501 219 q 529 235 525 232 m 285 410 q 242 449 269 431 q 285 410 251 438 m 317 321 q 271 365 296 346 q 308 321 283 350 l 317 321 m 258 278 q 231 306 249 290 q 228 297 231 300 q 258 278 247 286 m 317 188 q 303 194 311 190 q 303 181 303 193 q 308 179 304 181 q 314 178 313 178 q 317 188 317 181 m 290 151 l 290 160 q 197 210 258 176 l 186 207 l 186 197 q 221 164 204 181 q 258 142 247 142 q 290 151 271 142 m 232 138 q 203 164 231 140 q 183 192 186 178 q 174 211 179 199 q 126 201 172 211 l 126 194 q 129 183 126 196 q 163 153 140 172 q 181 133 168 149 q 194 122 189 122 q 226 131 204 122 q 232 138 228 133 m 174 114 q 144 149 165 131 q 113 167 124 168 q 103 186 111 169 q 90 190 88 190 q 54 175 92 190 q 67 157 58 167 q 151 99 94 139 q 174 114 164 111 m 526 1019 q 499 1038 518 1019 q 481 1065 481 1057 q 488 1076 481 1069 q 507 1046 486 1064 q 526 1019 528 1028 z "},"J":{"ha":790,"x_min":-12,"x_max":697,"o":"m 697 828 q 694 821 697 824 q 660 800 681 808 q 549 735 649 796 q 535 718 535 726 q 529 653 529 685 l 529 494 q 533 456 533 447 q 530 433 533 449 q 526 410 526 418 q 525 384 526 401 q 524 358 524 367 q 527 324 524 347 q 531 300 531 301 q 529 290 531 297 q 528 281 528 283 q 460 40 524 113 q 422 -6 447 25 q 369 -43 411 -19 q 267 -67 326 -67 q 193 -53 228 -67 q 161 -26 182 -43 q 115 25 146 -8 q 87 38 104 28 q 54 64 69 49 q -12 146 -12 131 q 18 196 -12 153 q 53 243 46 235 q 79 261 68 261 q 91 256 82 261 q 103 251 100 251 q 108 253 106 251 q 113 254 110 254 q 155 232 121 254 q 200 210 189 210 q 233 222 210 210 q 258 242 257 233 q 264 267 260 250 q 267 281 264 271 q 269 294 269 292 q 269 318 271 301 q 267 342 267 336 q 270 359 267 346 q 274 375 274 372 q 269 410 274 376 q 264 460 265 443 q 267 478 264 464 q 269 499 269 492 q 269 529 269 522 q 261 607 265 556 q 256 613 260 610 q 182 574 208 608 q 172 579 182 574 q 157 585 161 585 q 153 585 154 585 q 150 583 153 583 q 133 594 150 583 q 122 596 129 593 q 78 629 99 607 q 49 658 51 658 q 38 654 50 658 q 26 681 26 664 q 29 706 26 683 q 32 732 32 729 l 32 789 q 35 806 32 792 q 38 825 38 821 q 49 838 39 829 q 50 858 50 844 q 126 885 67 864 q 144 897 132 890 q 225 931 171 908 q 367 999 268 951 q 378 1014 368 1000 q 382 1013 378 1014 q 389 1011 386 1011 q 504 1063 407 1011 q 525 1086 510 1071 q 578 1111 554 1111 q 633 1075 590 1111 q 678 1035 656 1056 q 685 1024 678 1033 q 693 1010 693 1014 q 690 990 693 1008 q 686 963 686 971 q 688 936 686 954 q 689 911 689 918 q 686 885 689 904 q 683 865 683 867 q 690 844 683 856 q 697 828 697 833 m 649 1019 q 585 1075 624 1046 q 624 1022 599 1057 l 619 1018 q 588 1046 614 1022 q 557 1069 561 1069 q 541 1060 554 1069 q 522 1050 528 1051 q 574 986 542 1026 q 643 1010 597 996 q 649 1019 649 1014 m 558 978 q 513 1036 558 976 q 504 1038 510 1038 q 483 1031 500 1038 q 460 1017 465 1024 q 500 993 476 1013 q 519 960 519 965 q 518 954 519 956 q 499 968 508 954 q 479 993 485 989 q 443 1014 454 1014 q 411 994 438 1014 l 411 986 q 429 974 419 982 q 434 963 431 968 q 443 953 438 958 q 446 940 446 943 q 443 933 446 936 q 419 961 431 947 q 389 983 400 983 q 339 963 382 983 q 333 953 333 958 q 383 911 368 928 q 381 909 382 910 q 378 908 379 908 q 339 928 367 910 q 308 947 311 947 q 247 908 299 947 q 267 883 254 900 q 300 860 278 876 q 313 857 303 857 q 369 876 324 857 q 513 943 422 899 q 523 951 515 947 q 544 965 531 956 q 558 978 558 974 m 289 847 q 228 903 233 903 q 199 894 219 903 q 163 879 168 882 q 208 828 181 863 q 221 808 213 821 q 289 847 246 818 m 207 800 q 142 871 192 829 q 116 860 136 871 q 96 840 96 850 q 131 806 96 833 q 168 779 165 779 q 207 800 181 779 m 376 585 q 374 564 369 582 q 376 585 376 574 m 310 600 l 310 604 l 304 604 l 304 600 l 310 600 m 669 944 q 664 997 669 985 q 638 985 656 993 q 615 980 631 983 q 589 969 600 976 q 438 885 529 929 q 271 810 378 864 q 232 789 257 803 q 207 764 224 781 q 206 756 207 761 q 189 732 199 747 q 183 714 188 725 q 183 663 183 664 q 190 615 186 646 q 279 643 222 624 q 296 658 285 650 q 363 678 321 665 q 375 688 367 679 q 385 696 383 696 q 411 686 411 696 q 403 670 411 683 q 396 643 396 657 q 399 619 396 640 q 403 592 403 597 q 400 545 403 578 q 399 501 397 513 q 403 444 400 483 q 407 404 407 406 l 407 225 q 381 161 407 203 q 333 114 354 119 q 288 104 300 104 q 275 106 285 104 q 263 106 265 106 q 226 119 249 106 q 196 131 203 133 q 154 78 181 113 q 150 67 153 74 q 138 40 138 50 q 156 13 138 36 q 189 -22 175 -11 q 224 -40 210 -39 q 264 -46 256 -46 q 281 -44 267 -46 q 299 -43 296 -43 q 325 -35 288 -43 q 438 47 382 -22 q 493 167 488 114 q 501 231 497 190 q 506 288 504 271 l 513 725 q 501 740 501 736 q 512 756 501 746 q 532 767 522 767 q 539 767 535 767 q 544 765 542 765 q 664 839 551 765 q 669 944 669 903 m 378 465 l 375 475 l 371 474 l 374 465 l 378 465 m 314 435 l 314 439 l 308 439 l 308 435 l 314 435 m 382 229 l 382 238 l 378 238 l 378 229 l 382 229 m 363 179 q 347 186 358 181 q 332 165 343 178 q 278 224 315 185 q 319 154 319 161 q 315 149 319 153 q 310 142 310 144 q 314 133 310 138 q 346 153 326 140 q 363 179 353 163 m 303 150 l 303 158 q 265 207 265 207 q 258 202 263 207 q 251 196 253 197 q 200 174 231 192 q 283 129 236 129 q 294 132 290 129 q 261 183 276 156 l 265 186 q 286 163 267 185 q 303 150 299 149 m 176 158 q 153 190 176 171 q 118 210 131 208 q 108 217 110 217 l 96 217 q 131 182 107 210 q 167 143 160 149 q 176 158 176 156 m 111 167 q 76 217 94 206 q 68 206 68 208 q 111 167 94 175 m 160 129 q 138 153 160 139 l 133 151 q 144 121 144 129 q 143 118 144 115 l 135 118 q 115 131 126 129 q 139 90 117 114 q 160 129 160 124 m 65 168 q 56 192 60 179 q 50 189 54 192 l 50 181 q 65 168 56 176 m 131 74 l 46 168 q 28 161 42 169 q 26 151 26 158 q 82 81 26 118 q 31 150 64 106 q 46 154 40 154 q 51 149 47 154 q 64 124 56 139 q 99 85 99 85 q 89 72 99 81 q 118 53 108 51 q 131 74 128 67 z "},"K":{"ha":758,"x_min":-3,"x_max":663,"o":"m 663 1010 q 638 939 663 990 q 507 694 594 858 q 504 678 507 689 q 433 507 461 594 q 422 479 422 474 q 432 466 422 475 q 446 457 442 457 q 454 464 449 457 q 464 472 460 471 l 469 467 q 450 439 450 449 q 493 385 450 443 q 567 297 522 351 q 583 282 574 293 q 658 156 658 161 q 650 139 658 146 q 621 167 638 142 q 597 207 610 188 q 558 267 585 226 q 496 336 536 292 q 414 435 474 365 q 385 483 385 467 q 399 512 385 486 q 419 547 414 538 q 506 742 446 613 l 635 1001 q 629 1003 633 1003 q 596 988 640 1003 q 535 965 565 976 q 483 931 504 954 q 447 853 472 906 q 372 665 400 753 q 333 578 357 618 q 317 560 326 572 q 313 547 314 554 q 315 535 315 535 q 301 528 308 528 q 286 540 288 528 q 289 578 286 542 q 288 624 288 593 q 290 632 288 625 q 292 643 293 639 q 285 701 286 711 q 288 756 288 742 q 289 774 288 751 q 289 803 292 792 q 276 819 286 819 q 233 799 267 819 q 211 779 226 790 q 160 757 203 774 q 165 740 165 749 q 161 713 165 724 q 156 693 156 693 l 156 636 q 154 597 156 624 q 153 571 153 571 q 156 515 153 571 q 161 431 160 460 q 160 236 163 344 q 158 228 160 235 q 156 218 156 221 l 156 53 q 167 -1 156 13 q 163 -8 167 -3 q 160 -15 160 -12 q 163 -42 160 -15 q 165 -82 165 -68 q 168 -85 165 -82 q 242 -67 217 -78 q 278 -43 254 -58 q 279 19 279 -29 q 282 43 279 26 q 285 61 285 60 l 285 178 q 287 198 285 178 q 288 229 289 218 q 292 308 288 281 q 293 335 293 321 q 307 356 297 356 q 357 301 317 356 q 406 228 390 256 q 440 185 417 214 q 475 121 451 163 q 506 82 486 108 q 533 88 515 85 q 551 96 540 92 q 583 108 561 100 q 604 124 593 115 q 629 139 624 139 q 637 138 632 139 q 642 135 642 136 q 644 134 643 135 q 646 129 646 133 q 625 114 646 117 q 596 88 610 94 q 503 54 528 54 q 461 85 493 54 q 425 119 443 103 q 396 138 414 125 q 326 211 336 189 q 314 228 325 217 q 311 221 313 226 q 308 201 310 215 q 306 181 306 186 q 307 163 306 175 q 308 149 308 151 l 308 82 q 305 63 308 79 q 301 44 301 47 l 301 -22 q 296 -58 301 -50 q 247 -90 286 -75 q 169 -133 244 -92 q 151 -136 164 -136 q 143 -125 144 -133 q 143 -111 143 -112 q 125 -103 138 -108 q 64 -50 118 -97 q 7 -11 42 -36 q 1 53 1 -6 q -1 57 1 53 q -3 64 -3 61 l 14 274 l 22 497 l 1 707 q 6 767 1 746 q 6 839 7 774 q 24 900 4 883 q 85 929 26 903 q 101 940 90 933 q 206 978 188 978 q 220 972 208 978 q 238 965 232 967 q 303 897 257 938 q 310 903 307 897 q 372 1035 328 942 q 374 1061 371 1044 q 397 1072 382 1065 q 536 1125 429 1090 l 663 1053 l 663 1010 m 626 1038 q 571 1065 588 1051 q 549 1086 567 1068 q 529 1099 538 1099 q 504 1083 504 1099 q 510 1076 504 1081 q 597 1014 529 1068 q 618 1026 607 1019 q 626 1038 629 1032 m 574 1013 q 490 1085 497 1085 q 477 1081 488 1085 q 463 1075 467 1076 l 463 1061 q 477 1045 463 1058 q 494 1028 492 1032 q 518 1015 518 1015 q 538 996 535 1007 l 549 996 q 574 1013 563 996 m 528 990 q 489 1015 508 1003 q 450 1065 460 1035 l 442 1065 q 413 1049 424 1053 q 424 1035 417 1042 q 460 1017 438 1029 q 494 988 474 1007 q 499 975 496 982 q 528 990 508 981 m 456 939 q 421 1000 456 956 q 397 1019 413 1010 q 361 944 361 964 q 421 871 376 936 q 426 871 422 871 q 436 893 436 885 q 408 936 436 901 q 379 972 394 954 q 386 974 381 974 q 432 922 406 974 q 442 915 436 919 q 456 939 456 942 m 417 847 q 399 878 417 853 q 381 906 381 904 q 357 933 374 918 q 344 906 344 917 q 347 895 344 903 q 350 885 350 888 q 407 825 385 853 q 417 847 417 840 m 399 807 q 338 883 399 826 q 332 871 332 868 q 336 850 332 856 q 381 786 354 828 q 390 783 390 783 q 399 807 399 804 m 224 935 q 214 950 218 946 l 206 950 q 224 935 204 943 m 379 761 q 329 842 379 781 q 319 837 324 839 q 314 828 314 835 q 317 800 314 839 q 372 736 335 778 q 379 761 379 767 m 369 731 q 340 757 357 731 q 314 785 322 783 l 314 751 q 357 696 314 726 q 369 731 367 718 m 285 851 q 276 865 282 856 q 272 850 278 858 q 263 857 264 854 q 221 911 250 874 q 188 950 208 924 q 158 935 158 946 q 192 885 158 925 q 221 860 203 876 q 224 849 224 856 q 215 839 225 843 q 146 935 156 897 l 138 935 q 94 913 125 929 q 71 904 83 908 q 49 886 49 893 q 59 872 49 878 q 90 850 69 865 q 100 838 93 844 q 157 797 119 818 l 157 804 q 100 885 131 843 q 88 896 96 888 l 90 900 q 111 896 97 899 q 122 876 110 886 q 143 856 139 861 q 172 808 153 839 q 190 801 178 801 q 256 828 206 801 q 285 851 267 838 m 351 676 q 317 725 351 683 q 311 706 311 717 q 340 653 311 685 q 351 676 351 678 m 339 643 l 339 653 q 314 671 325 654 l 314 632 q 330 633 321 629 q 339 643 339 638 m 58 724 q 43 736 56 731 l 40 728 q 58 724 54 719 m 58 660 q 43 681 50 674 l 43 669 q 58 660 50 661 m 63 581 q 50 597 60 588 q 47 590 47 594 q 63 581 47 583 m 135 457 l 132 464 l 129 463 l 132 457 l 135 457 m 383 182 q 371 194 379 194 q 383 182 371 193 m 132 317 q 122 319 132 319 l 131 311 q 132 317 131 313 m 131 206 l 131 217 q 127 218 131 217 q 122 219 124 219 q 131 206 122 214 m 53 264 q 53 268 53 265 q 51 272 51 271 q 53 264 44 272 m 129 135 l 129 144 q 101 167 119 154 q 129 135 110 156 m 54 193 q 40 206 49 201 q 54 193 40 193 m 46 161 l 46 172 l 42 172 l 42 161 l 46 161 m 132 71 q 92 107 106 99 q 132 71 94 99 m 54 121 q 38 139 47 131 l 38 126 q 54 121 49 119 m 139 -31 q 128 -25 133 -25 q 139 -31 133 -32 m 56 29 q 38 54 49 44 l 35 40 q 56 29 49 32 m 124 899 l 114 899 l 114 903 l 124 903 l 124 899 z "},"L":{"ha":729,"x_min":-4,"x_max":647,"o":"m 647 356 q 640 342 647 353 q 633 325 633 331 q 628 228 628 271 q 628 219 628 226 q 628 206 628 211 q 633 199 628 203 q 638 193 638 196 q 618 163 638 176 q 599 154 610 161 q 569 129 589 147 q 401 28 513 96 q 204 -94 329 -22 q 176 -111 190 -103 q 144 -126 149 -126 q 133 -110 133 -126 q 129 -90 132 -94 q 58 -25 104 -69 q 14 24 22 13 q 1 81 -4 51 q -1 97 1 85 q -3 111 -3 108 q 0 144 -3 114 q 4 185 3 174 q 2 214 4 194 q 0 240 0 233 q 3 311 0 261 q 6 383 6 357 q 8 393 6 386 q 8 467 7 418 q 10 517 10 529 l 10 593 q 11 609 10 596 q 13 626 13 622 q 18 726 15 661 q 14 746 18 717 q 17 783 17 760 l 17 853 q 20 887 17 853 q 24 939 24 921 q 25 990 24 982 q 46 1013 26 999 q 72 1031 60 1021 q 136 1078 101 1057 q 190 1108 164 1093 q 224 1119 197 1114 q 232 1101 226 1113 q 268 1061 253 1075 q 351 988 301 1026 q 351 929 351 968 q 347 815 350 832 q 343 801 343 799 q 350 761 351 772 q 340 718 346 747 q 331 553 338 658 q 331 528 329 546 q 333 500 333 507 q 331 453 333 486 q 328 401 328 419 l 339 401 q 400 433 360 413 q 425 442 410 436 q 469 471 429 444 q 513 492 500 492 q 535 486 528 492 q 576 429 544 465 q 593 401 585 415 q 619 374 610 374 q 625 375 624 374 q 631 376 626 376 q 642 369 636 376 q 647 356 647 361 m 297 986 q 290 988 296 988 q 238 1031 285 988 q 188 1075 190 1075 q 128 1042 181 1075 q 150 986 128 1028 q 174 965 160 978 q 203 935 204 935 q 229 951 214 935 q 188 1000 225 964 q 150 1039 150 1036 q 151 1043 150 1044 l 158 1043 q 236 981 181 1029 q 249 963 240 974 q 297 986 267 971 m 179 926 q 104 1011 150 958 q 97 1013 101 1013 q 88 999 86 1001 q 167 917 161 917 q 179 926 172 917 m 61 917 q 49 935 56 931 q 44 929 44 932 q 61 917 44 924 m 150 756 q 60 847 106 815 q 146 750 89 814 q 150 756 149 751 m 578 374 q 544 422 578 379 q 503 464 510 464 l 496 464 q 460 439 490 454 q 419 408 429 424 q 462 364 429 388 q 500 326 494 340 l 510 326 q 535 347 519 335 q 503 387 526 364 q 469 431 479 410 q 474 432 472 433 q 504 408 486 422 q 533 376 511 401 q 556 357 551 357 q 568 363 558 357 q 578 374 578 368 m 76 750 q 61 771 76 750 q 44 782 51 783 l 39 779 q 51 760 39 769 q 76 750 64 751 m 606 321 q 601 342 606 336 l 592 342 q 571 319 578 335 q 365 197 532 319 q 318 172 329 172 q 303 185 303 172 q 306 194 303 189 q 310 201 310 199 q 297 218 310 208 l 297 324 q 300 356 297 326 q 303 388 303 385 l 303 453 q 306 475 303 454 q 308 503 310 496 q 306 553 306 553 q 308 578 306 561 q 311 601 311 594 q 321 740 314 658 q 321 779 322 765 q 322 829 318 810 q 328 876 328 854 q 319 963 328 872 q 271 946 301 958 q 222 910 253 932 q 175 879 200 900 q 172 739 175 831 q 171 663 172 686 q 169 646 169 639 q 172 631 169 643 q 175 618 175 619 l 175 408 q 169 347 175 414 q 165 247 164 281 q 169 237 165 243 q 171 228 172 231 q 164 210 164 214 q 163 161 164 194 q 163 128 163 128 l 163 53 q 160 39 163 50 q 157 25 157 28 q 161 17 157 24 q 161 -4 164 10 q 160 -31 158 -14 q 175 -51 175 -50 q 157 -64 175 -64 l 157 -79 q 160 -86 157 -85 l 168 -86 q 229 -58 193 -75 q 389 44 308 -6 q 424 71 401 56 q 522 133 457 93 q 579 174 551 150 q 592 183 586 176 q 606 321 606 315 m 146 588 q 144 597 150 590 q 142 593 142 597 q 146 588 143 589 m 485 313 q 476 329 485 321 q 399 401 396 401 q 376 392 392 401 q 360 381 361 382 q 425 283 385 347 l 421 279 l 414 279 q 376 324 399 292 q 339 367 354 356 q 325 331 325 353 q 336 307 325 325 q 381 247 354 285 q 417 265 406 257 q 454 288 436 276 q 485 313 485 307 m 140 482 q 140 492 147 486 l 140 482 m 363 232 q 344 268 357 253 q 324 283 331 283 q 322 282 322 283 q 326 240 322 249 q 336 219 329 232 q 363 232 349 224 m 142 365 q 133 379 142 371 q 142 365 133 368 m 39 460 q 36 482 44 472 l 32 475 q 39 460 32 472 m 57 368 q 35 397 43 397 q 32 393 32 397 q 39 376 32 382 q 54 365 51 369 l 57 368 m 44 329 q 33 347 39 342 q 29 340 29 343 q 44 329 29 329 m 47 282 q 32 301 42 289 l 32 288 q 40 285 35 288 q 47 282 46 282 m 42 253 q 28 269 38 267 q 26 265 28 268 q 25 260 25 261 q 42 253 32 251 m 67 217 q 53 236 63 232 q 67 217 58 229 m 31 176 q 28 189 35 182 q 29 183 28 188 q 31 176 31 178 m 63 79 l 60 92 l 56 92 l 58 79 l 63 79 m 44 36 l 42 39 l 39 38 l 43 33 l 44 36 m 129 -50 q 119 -35 126 -47 l 110 -35 q 129 -50 117 -46 z "},"M":{"ha":951,"x_min":-11,"x_max":858,"o":"m 858 1010 q 855 990 858 1008 q 851 963 851 972 q 853 944 851 957 q 854 925 854 931 q 853 917 854 922 q 850 908 851 911 q 846 801 846 857 l 846 749 q 848 742 846 747 q 850 733 850 736 q 842 681 850 724 q 842 671 840 678 q 843 658 843 663 q 840 628 843 649 q 836 608 836 608 q 841 567 836 590 q 846 496 846 544 q 844 479 846 490 q 843 458 843 468 q 844 443 844 449 q 842 437 844 442 q 840 429 840 432 l 840 357 q 835 311 840 342 q 814 269 826 269 q 810 269 811 269 q 806 271 808 271 q 733 232 788 271 q 681 211 703 211 q 667 224 674 215 q 622 261 651 235 q 593 294 614 272 q 575 243 586 289 q 560 190 572 224 q 528 168 556 183 q 513 158 524 164 q 478 143 501 153 q 468 136 475 140 q 428 121 425 121 q 418 131 421 121 q 401 140 415 140 q 393 158 403 149 q 379 176 381 174 q 322 269 350 228 q 300 321 315 288 l 296 131 q 293 99 296 140 q 290 43 292 72 q 275 -8 289 14 q 282 -18 282 -14 q 268 -43 282 -31 q 118 -114 138 -114 q 99 -114 97 -114 q 82 -83 92 -99 q 60 -64 72 -76 q 1 7 40 -40 q -4 29 0 14 q -8 75 -8 44 q -7 119 -7 129 q -9 126 -7 122 q -11 132 -11 129 q -8 153 -11 135 q -6 181 -6 172 q -1 240 -4 200 q 0 368 0 294 l 0 432 q 0 553 0 557 q 1 572 -1 567 q 4 579 4 578 l 4 635 q 8 666 4 636 q 14 708 13 696 q 10 714 14 708 q 7 719 10 715 q 20 780 15 739 q 32 839 25 821 q 51 854 36 849 q 126 874 76 860 q 203 917 129 875 q 218 919 208 919 q 268 878 232 919 q 317 821 292 850 q 336 819 319 819 l 424 638 q 425 639 424 638 q 447 700 443 686 q 460 754 456 726 q 479 838 465 782 q 486 850 482 842 q 500 901 490 868 q 518 950 507 918 q 538 1018 524 972 q 538 1036 540 1029 q 533 1046 533 1044 l 533 1054 q 550 1060 544 1054 q 624 1108 569 1078 q 700 1138 679 1138 q 717 1135 711 1138 q 758 1100 732 1128 q 794 1068 771 1088 q 825 1049 818 1049 q 832 1051 828 1049 q 839 1053 836 1053 q 858 1010 858 1053 m 793 1038 q 764 1068 793 1042 q 728 1100 735 1094 q 697 1113 713 1110 l 697 1099 q 771 1024 760 1056 q 793 1038 793 1026 m 757 1021 q 717 1067 742 1046 q 697 1082 710 1071 q 688 1104 693 1088 l 678 1104 q 654 1096 685 1104 q 725 1025 678 1072 q 713 1021 721 1021 q 686 1042 703 1029 q 682 1050 685 1044 q 635 1088 636 1088 q 622 1083 626 1088 q 622 1078 622 1082 q 668 1033 644 1067 q 700 1000 692 1000 q 731 1008 708 1000 q 757 1021 754 1015 m 679 994 q 646 1036 669 1008 q 604 1071 615 1071 q 593 1063 597 1071 l 668 990 q 679 994 675 994 m 647 972 l 647 988 q 578 1044 647 1000 q 574 1039 574 1042 q 636 974 574 1033 q 647 972 647 972 m 638 932 l 638 942 q 615 954 631 946 q 638 932 624 946 m 608 942 q 601 949 608 940 q 564 1008 592 974 q 554 990 554 1000 q 560 976 554 986 q 568 964 567 967 q 599 944 581 957 q 606 935 606 938 l 608 942 m 636 908 q 626 918 635 908 q 615 922 622 924 q 632 900 622 915 q 636 908 632 906 m 631 878 q 568 961 631 882 q 553 971 563 964 q 540 943 544 958 q 569 915 553 932 q 597 882 575 910 q 621 854 619 854 q 626 857 626 854 q 631 878 631 871 m 615 833 q 536 932 558 915 q 529 908 529 904 q 535 896 529 908 q 607 821 542 883 q 615 833 615 829 m 601 800 q 583 825 601 810 q 557 850 557 849 q 539 878 553 854 q 522 894 531 894 q 517 876 521 888 l 593 786 q 601 800 601 793 m 588 771 q 586 775 588 775 q 549 815 569 788 q 517 857 518 856 q 504 831 504 846 q 532 793 504 828 q 575 738 565 751 q 588 771 588 768 m 569 717 q 507 806 547 749 q 500 808 506 808 q 494 796 494 800 q 567 711 494 797 q 569 717 567 713 m 561 685 q 493 779 561 700 q 481 746 481 761 q 476 731 479 742 q 474 718 474 721 q 479 706 474 711 q 543 636 503 682 q 551 646 546 639 q 499 714 533 669 q 490 718 497 715 q 483 726 483 721 q 483 731 483 729 q 485 732 485 732 l 490 732 q 521 699 501 725 q 556 665 540 672 q 561 685 561 679 m 671 538 l 668 538 l 664 533 l 668 532 l 671 538 m 538 619 q 475 699 538 619 q 463 668 463 679 q 525 600 463 664 q 538 619 538 613 m 522 588 q 458 650 500 608 q 451 636 451 633 q 465 615 451 626 q 508 576 490 596 q 519 574 519 574 q 521 577 519 574 q 522 588 522 581 m 294 811 q 258 855 294 815 q 213 894 221 894 q 153 863 208 894 q 196 811 161 843 q 211 793 196 810 q 226 779 222 779 q 246 792 246 783 q 186 863 246 803 q 188 865 188 863 q 190 867 189 867 q 246 824 221 854 q 271 796 267 796 q 294 811 294 801 m 510 549 q 482 583 510 554 q 444 619 454 613 q 443 617 444 618 q 442 613 442 615 q 507 542 442 614 q 510 549 510 546 m 504 521 q 474 558 504 524 q 443 592 444 592 q 444 582 443 590 q 465 546 450 579 q 488 519 472 536 q 493 499 488 511 q 504 521 504 522 m 206 769 q 132 854 196 800 q 108 846 138 854 q 107 840 107 844 q 163 768 143 806 q 179 754 169 754 q 206 769 189 754 m 832 914 l 832 1006 q 810 1017 821 1017 q 792 1008 807 1017 q 767 997 772 999 q 739 992 757 996 q 679 967 713 982 q 661 922 674 960 q 644 842 658 900 q 590 708 625 797 q 581 658 588 688 q 550 589 568 635 q 549 575 550 583 q 532 536 539 560 q 519 497 525 507 q 517 476 519 490 q 510 465 513 471 q 507 451 508 458 q 489 436 496 438 q 482 450 482 440 q 479 463 481 456 q 458 501 472 475 q 450 533 457 514 q 404 613 428 567 q 331 776 381 700 q 304 786 324 786 q 210 750 290 786 q 185 731 203 746 q 171 713 179 725 q 172 700 172 708 q 156 683 164 694 q 157 651 157 692 q 155 609 157 640 q 153 561 153 578 q 157 533 156 525 q 153 519 154 518 q 157 510 156 515 q 155 500 157 506 q 153 493 153 494 q 154 446 154 507 q 151 405 154 432 q 149 364 149 378 l 149 304 q 147 260 149 313 q 146 190 146 214 q 150 168 147 164 q 139 153 144 163 q 138 -60 139 82 q 128 -85 138 -68 l 136 -85 q 258 -22 153 -78 q 263 26 260 -4 q 276 294 281 196 q 275 317 276 300 q 274 340 274 333 q 281 528 278 468 q 294 536 281 536 q 304 531 301 536 q 317 493 307 517 q 346 431 328 469 q 371 361 353 407 q 400 269 381 326 q 400 261 400 267 q 426 169 411 240 q 438 153 432 164 q 485 171 447 154 q 517 188 507 179 q 532 199 524 190 q 568 306 557 260 q 572 326 569 314 q 660 586 619 446 q 668 635 663 604 q 679 665 672 644 q 688 669 682 667 q 700 639 700 667 q 694 588 700 654 q 694 546 694 588 q 693 521 694 536 q 693 497 693 504 q 694 479 693 490 q 696 465 696 468 q 694 396 697 443 q 690 353 690 349 l 690 250 q 696 242 690 247 q 796 300 758 272 q 800 321 800 304 q 811 324 808 321 l 822 535 q 818 567 822 538 q 814 600 814 597 l 825 697 l 825 754 q 824 774 825 753 q 824 801 822 793 q 825 808 824 804 q 826 813 826 811 q 828 872 824 839 q 832 914 832 904 m 167 750 q 122 803 158 754 q 83 838 108 814 l 75 838 q 107 793 86 822 q 151 733 119 769 q 167 750 167 743 m 136 704 q 121 704 121 704 q 128 692 122 699 q 136 704 131 697 m 128 613 q 117 617 122 617 q 124 603 119 611 l 128 613 m 44 615 q 39 624 46 617 q 28 633 32 632 l 28 618 q 38 617 32 618 q 44 615 43 615 m 331 351 l 331 356 l 324 356 l 324 351 l 331 351 m 40 557 q 28 578 36 571 l 25 560 q 40 557 28 560 m 32 536 l 26 539 l 25 536 l 31 533 l 32 536 m 28 506 l 28 513 l 24 513 l 24 506 l 28 506 m 65 317 q 25 365 54 338 l 25 349 q 65 317 39 339 m 119 244 l 119 251 q 114 250 119 250 l 119 244 m 31 300 l 26 303 l 25 301 l 28 297 l 31 300 m 39 247 q 24 260 33 256 q 32 244 26 254 q 39 247 35 244 m 111 171 q 107 167 110 168 q 110 161 107 164 q 111 171 111 163 m 26 188 q 21 196 26 196 q 24 192 22 194 q 26 188 25 189 m 113 90 l 113 97 l 108 97 l 108 90 l 113 90 m 57 67 l 54 69 l 51 67 l 56 64 l 57 67 m 110 -4 l 110 4 l 106 4 l 106 -4 l 110 -4 m 117 -85 q 106 -75 107 -75 l 106 -85 q 114 -89 110 -89 q 117 -85 114 -87 z "},"N":{"ha":815,"x_min":-22,"x_max":703,"o":"m 703 1004 q 700 996 703 1003 q 697 986 697 989 q 692 950 696 975 q 689 922 689 925 l 689 842 q 688 833 689 839 q 685 825 686 828 q 685 749 686 799 q 688 704 685 733 q 692 676 692 675 l 678 292 q 665 168 676 274 q 658 154 665 163 q 646 139 658 154 q 633 128 642 135 q 625 125 631 126 q 589 104 613 118 q 574 101 583 104 q 474 61 499 61 q 465 70 471 61 q 456 79 458 79 q 453 78 453 79 q 450 76 453 76 q 415 136 449 76 q 358 233 375 208 q 353 264 357 243 q 321 374 336 324 q 311 350 311 374 q 307 271 313 292 q 307 165 307 269 l 290 17 q 292 4 290 15 q 295 -11 293 -7 q 307 -24 297 -15 q 297 -42 301 -33 q 281 -51 292 -51 q 274 -50 278 -51 q 265 -50 268 -50 q 238 -65 263 -50 q 198 -87 206 -83 q 182 -93 190 -90 q 119 -135 161 -103 q 103 -142 111 -142 q 78 -124 85 -142 q -22 6 50 -58 q -14 15 -22 6 q -7 38 -6 25 q -8 56 -10 53 q -3 69 -3 78 l -3 321 q 0 337 -3 324 q 3 353 3 350 l 3 618 q -1 713 3 675 q -7 754 -7 763 q -5 765 -7 757 q -3 776 -3 774 q 0 839 -3 788 q 3 865 1 846 q 6 893 6 885 q 3 907 6 896 q 3 922 1 918 q 13 942 3 928 l 19 942 l 26 935 q 33 946 28 939 q 57 961 38 953 q 176 1004 160 1004 q 196 994 178 1004 q 210 988 201 993 q 247 932 221 969 q 268 896 260 913 q 286 884 274 886 q 301 879 299 882 q 353 790 318 851 q 401 714 364 763 l 403 911 q 397 1015 397 1004 q 399 1038 397 1044 q 394 1042 394 1038 l 394 1056 l 543 1115 q 581 1106 553 1108 q 601 1082 582 1100 q 610 1081 604 1082 q 649 1039 619 1065 q 683 1029 650 1038 q 703 1004 703 1024 m 628 1025 q 603 1050 615 1038 q 579 1067 586 1068 q 615 1026 615 1031 q 610 1017 615 1019 q 557 1076 585 1026 q 543 1086 553 1086 l 524 1086 q 521 1081 521 1083 q 540 1050 521 1079 q 563 1017 554 1029 q 585 1004 572 1004 q 625 1017 596 1004 q 628 1025 628 1018 m 563 994 q 526 1040 557 1000 q 496 1072 500 1072 q 467 1050 469 1064 q 513 1017 489 1033 q 540 978 539 994 l 549 978 q 563 994 564 992 m 532 974 q 451 1046 453 1046 l 442 1046 l 439 1038 q 490 997 451 1029 q 526 971 524 971 q 532 974 531 971 m 436 893 l 436 917 l 432 917 l 432 893 l 436 893 m 447 767 q 433 782 443 779 q 447 767 440 771 m 436 703 q 432 721 436 713 q 431 713 429 721 q 436 703 433 706 m 503 617 q 467 678 493 638 q 499 614 483 640 q 503 617 500 613 m 257 874 q 182 982 185 982 q 167 978 179 982 q 151 974 154 975 q 144 968 149 972 q 178 915 144 954 q 197 890 188 903 q 235 854 226 854 q 257 874 257 864 m 214 842 q 149 925 190 871 q 140 943 142 936 q 125 967 135 964 q 104 949 118 961 q 119 906 108 933 q 149 864 126 894 q 182 829 175 829 q 214 842 171 829 m 108 886 l 108 893 q 81 938 82 938 q 57 919 65 938 q 108 886 60 918 m 664 1003 q 586 979 638 996 q 568 960 581 972 q 549 947 561 957 q 543 906 547 943 q 542 868 539 882 q 542 853 542 867 q 536 801 536 799 q 538 779 536 793 q 538 760 538 767 q 535 728 538 750 q 532 707 532 707 q 533 678 532 706 q 535 642 535 651 q 530 570 533 621 q 526 518 526 519 q 535 456 526 515 q 540 431 535 449 q 544 413 544 414 q 531 390 539 390 q 514 418 521 390 q 503 457 508 438 q 483 508 497 476 q 426 619 463 549 q 374 714 407 654 q 361 725 368 717 q 325 793 343 758 q 288 847 296 847 q 251 833 275 847 q 219 814 236 824 q 214 810 218 813 q 164 788 201 803 l 164 722 q 161 606 163 640 q 140 338 140 307 q 144 263 140 297 q 148 256 144 260 q 151 250 151 253 q 147 242 151 247 q 142 233 142 236 l 142 172 q 149 160 142 169 q 156 147 156 150 q 143 135 156 140 q 140 124 143 132 q 138 114 138 117 l 138 58 q 135 45 138 56 q 133 31 133 35 q 139 8 138 3 q 133 1 138 6 q 131 -90 133 -32 q 236 -36 196 -64 q 272 -12 253 -29 q 268 6 269 -6 q 285 165 275 58 q 285 218 285 185 q 292 332 286 257 q 293 382 293 343 l 293 446 q 290 493 293 442 q 289 564 289 540 q 303 594 290 594 q 313 589 310 594 q 316 559 313 578 q 329 506 319 540 q 368 411 344 471 q 369 393 368 404 q 385 365 376 383 q 453 150 407 293 q 461 133 458 143 q 467 108 464 124 q 488 90 478 90 q 639 156 508 90 q 646 253 639 181 q 653 325 653 325 l 660 540 q 663 636 660 606 l 664 1003 m 32 785 q 18 800 29 792 l 18 779 q 26 782 21 779 q 32 785 31 785 m 322 433 l 322 446 l 319 446 l 319 433 l 322 433 m 135 594 q 126 601 136 601 q 135 594 129 594 m 31 685 q 24 703 32 689 q 21 697 21 700 q 31 685 21 701 m 129 554 q 125 565 131 561 q 129 554 125 557 m 28 585 l 25 586 l 22 581 l 25 579 l 28 585 m 31 386 q 31 390 31 386 q 29 394 29 393 q 25 388 25 394 q 31 386 28 388 m 117 250 q 93 283 103 274 q 117 250 106 263 m 36 326 q 25 344 32 339 q 22 339 25 343 l 36 326 m 28 261 l 25 261 l 22 256 l 25 254 l 28 261 m 40 185 l 40 193 q 24 213 35 199 q 21 204 21 208 q 40 185 21 192 m 28 154 l 25 156 l 22 150 l 25 149 l 28 154 m 33 106 q 32 111 33 107 q 32 117 32 115 q 26 115 29 115 q 30 109 26 113 q 33 106 33 106 m 88 -3 q 47 44 75 14 q 85 -8 57 21 q 88 -3 85 -7 m 108 -42 q 104 -32 108 -35 q 101 -33 104 -32 q 99 -37 99 -33 q 100 -42 99 -40 q 101 -44 101 -44 q 108 -42 104 -44 m 17 7 l 13 10 l 11 7 l 14 4 l 17 7 m 11 13 l 3 17 l 3 14 l 10 10 l 11 13 m 108 -106 q 93 -92 103 -97 l 93 -100 q 103 -110 97 -104 q 108 -106 104 -108 z "},"O":{"ha":931,"x_min":-39,"x_max":822,"o":"m 822 603 q 811 447 822 501 q 776 286 806 400 q 771 258 775 276 q 737 163 754 211 q 689 57 719 114 q 556 -51 656 -4 q 404 -94 467 -94 q 322 -71 365 -94 q 313 -71 319 -71 q 301 -73 308 -71 q 290 -75 293 -75 q 265 -62 286 -75 q 100 69 194 -18 q 92 71 97 69 q 53 108 64 90 q -8 226 31 147 q -24 306 -14 239 q -39 463 -39 410 q -28 593 -39 522 q -1 699 -24 621 q -3 719 -3 704 q 22 772 10 736 q 42 828 39 822 q 76 900 60 868 q 222 1056 119 982 q 265 1089 240 1065 q 282 1086 271 1089 l 418 1132 q 571 1064 461 1126 q 604 1031 582 1051 q 722 928 647 999 q 757 889 736 915 q 803 757 768 871 q 822 603 822 693 m 504 1053 q 429 1097 481 1097 q 376 1079 389 1097 q 426 1049 417 1051 q 461 1046 432 1046 q 504 1053 494 1046 m 397 1043 q 372 1061 388 1044 q 347 1078 357 1078 q 300 1060 351 1078 l 300 1050 q 343 1008 331 1008 q 370 1021 349 1008 q 397 1043 392 1033 m 321 997 q 272 1049 290 1025 q 253 1038 264 1044 q 233 1029 242 1032 q 218 1013 218 1022 q 240 982 218 1007 q 272 951 263 957 q 321 997 314 983 m 256 938 q 227 969 250 940 q 200 997 204 997 q 138 931 138 949 q 139 924 138 926 q 164 904 151 914 q 176 890 171 897 q 196 879 188 879 q 256 938 208 879 m 182 826 q 181 836 182 831 q 175 854 172 842 q 178 871 179 868 q 151 897 165 883 q 121 917 132 915 q 106 882 114 904 q 182 826 157 843 m 174 808 l 99 871 q 85 847 85 853 q 160 788 85 839 q 174 808 164 792 m 790 579 l 790 665 q 779 726 790 674 q 756 820 767 786 q 721 888 746 854 q 651 958 690 928 q 592 985 628 968 q 492 1017 531 1017 q 328 951 414 1017 q 281 913 290 921 q 238 854 250 885 q 221 839 231 849 q 204 796 215 822 q 197 784 200 792 q 190 765 193 776 q 171 742 183 758 q 169 725 171 735 q 154 679 164 713 q 144 625 142 636 q 132 582 133 614 q 126 528 132 543 q 126 464 129 525 q 133 367 128 428 q 154 224 135 350 q 163 189 157 201 q 189 124 175 157 q 238 60 207 85 q 249 40 242 51 q 410 -65 333 -65 q 539 -29 449 -65 q 563 -15 547 -22 q 635 42 592 -6 q 686 114 674 85 q 729 260 700 149 q 763 404 753 344 l 790 579 m 153 765 q 138 781 153 769 q 115 799 115 797 q 76 828 104 813 q 61 794 69 817 q 136 738 115 756 q 153 765 153 758 m 126 717 q 82 750 110 729 q 122 700 107 699 q 124 705 122 700 q 126 717 126 710 m 67 732 q 50 756 61 746 l 47 740 q 67 732 54 738 m 47 713 l 40 718 l 38 715 l 44 710 l 47 713 m 103 622 q 92 635 100 628 q 103 622 96 628 m 58 606 q 21 649 42 629 q 14 635 14 642 q 58 606 25 629 m 97 518 q 79 546 97 531 q 85 522 85 539 q 90 497 86 504 l 94 501 q 94 513 93 510 q 97 518 97 517 m 19 557 q 3 572 19 568 q 19 557 8 557 m 35 501 q -3 535 24 517 q 8 515 -7 528 q 35 501 22 501 m 61 426 q -3 489 26 479 q 0 476 -3 489 q 61 426 14 468 m 22 332 q 6 349 15 344 l 6 339 q 22 332 15 331 m 667 436 q 653 409 656 426 q 650 375 651 392 q 635 324 647 350 q 547 178 592 221 q 467 129 493 129 q 385 149 419 129 q 322 213 343 172 q 293 286 310 236 q 286 325 289 299 q 279 413 283 351 q 276 469 276 467 q 301 604 276 517 q 335 671 313 626 q 354 722 340 690 q 381 747 356 725 q 388 761 382 751 q 413 782 392 767 q 476 801 442 801 q 600 756 550 801 q 622 710 608 738 q 644 643 640 675 q 651 590 649 617 q 667 515 667 533 l 667 436 m 528 608 q 504 626 513 622 q 528 608 518 608 m 504 592 l 496 596 l 494 592 l 503 588 l 504 592 m 615 393 l 615 406 q 593 419 607 411 q 615 393 593 400 m 592 319 q 585 329 592 324 q 572 339 574 338 q 563 308 592 313 l 563 299 q 581 288 576 288 q 592 319 592 311 m 468 486 q 465 564 468 528 q 451 685 460 632 q 442 726 447 715 q 422 742 436 738 q 336 618 376 706 q 319 547 328 599 q 310 467 310 496 l 310 403 q 311 392 310 399 q 313 383 313 385 q 361 224 322 224 q 411 267 383 224 q 436 313 424 289 q 456 344 444 324 q 464 386 460 358 q 464 453 464 410 q 468 486 468 496 m 521 325 l 521 335 q 490 363 497 363 l 486 360 l 486 350 q 521 325 500 340 m 568 265 q 546 293 568 263 q 535 285 542 285 q 509 307 533 285 q 478 331 485 329 l 478 315 l 549 250 l 560 250 q 568 265 568 268 m 542 231 q 507 271 542 240 q 467 307 493 285 q 447 268 460 292 q 374 194 424 228 q 396 178 382 188 q 461 158 435 158 q 494 174 474 158 q 515 199 515 189 q 450 258 481 226 q 526 201 469 263 q 535 217 528 206 q 542 231 542 228 z "},"P":{"ha":742,"x_min":-1,"x_max":671,"o":"m 671 778 q 660 701 671 754 q 646 636 650 647 q 504 486 604 549 q 485 479 497 483 q 411 428 461 461 q 367 397 367 401 q 363 306 368 367 q 358 249 358 244 l 358 138 l 347 29 q 350 -4 347 11 q 354 -9 350 -4 q 358 -18 358 -14 q 353 -50 358 -28 q 321 -47 360 -47 q 272 -65 308 -47 q 223 -88 247 -78 q 163 -103 199 -99 q 97 -36 144 -79 q 38 13 67 -12 q 7 72 6 43 q 6 129 10 90 q 2 149 6 135 q -1 167 -1 164 q 1 173 -1 169 q 4 179 4 176 l 4 247 q 6 278 4 250 q 7 310 7 307 q 11 347 7 314 q 15 382 15 379 l 15 454 q 15 547 15 547 l 42 881 q 37 898 42 883 q 32 915 32 913 q 36 924 32 919 q 42 931 40 928 q 44 957 44 940 l 44 1024 q 69 1054 44 1054 q 78 1052 72 1054 q 86 1050 83 1050 q 95 1056 89 1050 q 103 1061 101 1061 q 253 1104 156 1078 q 367 1115 306 1115 q 392 1108 369 1115 q 418 1101 415 1101 q 423 1103 421 1101 q 429 1104 425 1104 q 540 1049 463 1104 q 561 1022 551 1040 q 579 994 578 994 q 615 942 594 975 q 617 919 615 935 q 632 904 622 915 q 653 844 638 885 q 664 822 657 838 q 671 778 671 806 m 546 986 q 525 1022 540 1011 q 444 1067 469 1067 q 438 1063 438 1067 q 456 1038 438 1058 q 485 1003 478 1011 q 546 986 506 1000 m 461 1000 l 461 1010 q 440 1028 453 1017 q 406 1078 428 1049 q 387 1081 401 1078 q 369 1083 372 1083 q 356 1074 358 1083 q 383 1039 367 1065 q 408 1003 404 1008 q 435 1000 417 1003 q 454 997 453 997 q 461 1000 461 997 m 382 1000 q 325 1054 358 1047 q 331 1060 331 1058 q 347 1058 344 1057 q 336 1072 346 1063 q 322 1081 326 1081 q 246 1069 267 1081 q 282 1033 249 1058 q 308 1008 296 1022 q 321 986 313 1000 q 351 993 329 988 q 382 1000 374 999 m 297 979 q 294 999 299 993 q 229 1068 236 1068 q 181 1054 213 1068 q 211 1011 185 1042 q 250 964 243 974 q 257 963 253 963 q 297 979 269 963 m 232 950 l 232 960 q 160 1033 208 986 q 161 1044 161 1026 q 135 1033 151 1040 l 135 1024 q 165 974 150 999 q 201 933 190 933 q 232 950 208 933 m 174 853 l 174 863 l 169 863 l 169 853 l 174 853 m 101 860 q 86 871 94 871 q 101 860 99 858 m 172 790 q 169 800 172 796 q 165 795 168 799 q 160 792 161 792 l 165 785 q 172 790 167 785 m 642 785 q 640 815 642 811 q 622 851 633 828 q 556 942 607 906 q 461 974 510 974 q 353 967 388 974 q 346 950 351 961 q 324 953 331 953 q 276 936 313 953 q 253 919 269 928 q 219 907 240 919 q 224 889 222 900 q 207 871 214 874 q 200 833 204 856 q 201 783 201 815 q 196 696 199 739 q 199 607 192 649 q 188 554 188 593 q 188 478 186 482 q 192 468 192 472 q 185 438 185 454 q 183 392 185 422 q 181 363 181 363 q 185 318 181 335 q 190 308 185 315 q 194 297 194 300 q 182 269 194 304 q 183 229 183 256 q 178 213 182 222 q 175 200 175 203 q 178 141 175 197 q 181 82 181 85 l 181 1 q 179 -36 181 -43 q 186 -49 179 -39 q 193 -60 193 -58 q 195 -64 193 -62 q 201 -65 197 -65 q 238 -50 206 -65 q 288 -26 276 -31 q 318 -15 300 -22 q 333 129 325 38 q 336 238 336 171 q 322 246 331 240 q 332 297 326 264 q 332 386 332 331 q 333 415 331 399 q 479 508 372 444 q 515 525 493 514 q 569 575 528 536 q 575 588 571 581 q 626 675 614 622 q 642 785 642 740 m 65 706 l 61 714 l 57 713 l 61 706 l 65 706 m 61 658 q 58 669 61 665 q 56 665 56 669 q 61 658 57 660 m 61 628 q 51 640 61 631 l 47 633 q 51 628 47 628 l 61 628 m 67 582 q 49 603 61 597 q 44 596 44 603 l 44 590 q 57 582 54 582 l 67 582 m 72 439 q 58 450 65 450 q 72 439 58 439 m 46 292 l 46 314 l 42 314 l 42 292 l 46 292 m 494 701 q 479 669 494 699 q 456 622 461 636 q 447 624 453 624 q 429 613 444 624 q 401 592 410 596 q 364 576 389 588 q 326 551 339 564 q 313 556 321 553 q 306 564 306 558 q 311 578 306 567 q 317 597 317 590 q 331 850 317 806 q 374 856 360 856 q 494 783 440 856 l 494 701 m 369 804 q 365 824 369 817 l 356 824 q 347 796 347 799 l 347 747 q 369 804 369 771 m 431 649 l 431 658 q 417 650 414 650 q 394 675 406 650 q 364 708 383 700 q 358 696 358 701 q 403 626 358 696 q 431 649 413 633 m 388 617 q 349 688 374 647 q 346 601 342 610 q 388 617 360 606 z "},"Q":{"ha":1014,"x_min":-47,"x_max":917,"o":"m 506 178 q 449 163 496 163 q 368 204 397 163 q 433 247 425 247 q 461 218 433 247 q 483 207 469 215 q 506 178 500 194 m 917 167 q 893 142 904 142 q 890 143 889 142 q 888 144 890 144 q 841 86 886 144 q 783 28 796 28 q 765 40 781 28 q 742 54 749 51 q 671 78 690 78 q 606 8 657 46 q 522 -50 603 6 q 490 -57 511 -51 q 447 -68 463 -68 q 379 -65 443 -68 q 313 -62 315 -62 q 299 -74 304 -62 l 289 -74 q 267 -57 288 -74 q 229 -33 246 -40 q 171 -4 213 -25 q 121 21 125 18 q 69 58 85 40 q 13 196 40 94 q -1 226 6 206 q -19 286 -8 246 q -35 335 -25 303 q -47 449 -47 385 q -36 502 -47 450 q -24 575 -25 554 q -21 618 -24 589 q -15 682 -19 640 q 10 735 -4 699 q 186 1017 39 882 q 297 1088 204 1033 q 311 1089 301 1088 q 331 1101 317 1090 q 349 1111 344 1111 q 370 1109 351 1111 q 396 1107 389 1107 q 499 1068 449 1104 q 551 1046 500 1068 q 560 1031 553 1040 q 599 1017 575 1026 q 657 979 615 1007 q 720 919 688 958 q 760 851 753 881 q 772 835 765 846 q 790 788 785 804 q 813 689 794 754 q 815 658 814 679 q 833 554 822 629 q 832 510 832 564 q 836 490 832 504 q 840 472 840 475 q 829 364 840 447 q 817 317 828 351 q 806 279 806 282 q 847 233 806 272 q 917 167 882 200 m 474 1043 l 474 1053 q 401 1076 410 1076 l 386 1076 q 399 1057 389 1068 q 467 1039 446 1039 q 474 1043 474 1039 m 415 1032 q 392 1046 403 1039 q 375 1065 375 1056 q 376 1074 375 1069 q 378 1079 378 1078 l 364 1079 q 338 1068 354 1072 l 338 1057 q 354 1033 346 1044 q 383 1010 372 1010 q 403 1017 389 1010 q 415 1032 418 1025 m 360 994 q 331 1031 356 999 q 306 1057 311 1057 q 256 1026 293 1057 q 263 1006 257 1018 q 290 976 268 994 q 319 957 313 957 q 360 994 357 976 m 299 936 q 267 977 299 942 q 231 1013 236 1013 q 181 974 214 1013 q 147 926 149 936 q 249 876 201 892 q 261 899 261 889 q 233 919 253 904 q 206 939 214 933 q 211 946 211 944 l 218 946 q 272 911 271 911 q 288 921 278 911 q 299 936 299 931 m 238 857 q 147 897 207 867 q 131 910 142 903 q 174 876 138 896 q 221 840 210 857 l 215 835 q 179 854 203 842 q 166 856 172 854 q 139 876 160 858 q 118 890 122 890 q 110 886 114 890 l 110 874 q 201 800 142 844 q 238 857 224 826 m 867 161 q 783 242 858 168 q 765 265 765 261 q 772 282 765 269 q 781 300 779 294 q 786 329 782 311 q 799 358 792 340 q 808 472 808 438 q 804 521 808 475 q 799 594 800 572 q 792 610 796 600 q 729 857 785 747 q 702 896 718 878 q 657 944 686 914 q 601 982 629 967 q 553 1003 583 989 q 508 1018 522 1018 q 495 1013 506 1018 q 481 1007 485 1007 q 472 1010 476 1007 q 464 1013 467 1013 q 306 899 424 1013 q 299 881 300 893 q 207 718 258 861 q 175 639 194 690 q 169 589 167 614 q 157 560 164 579 q 153 461 158 526 q 150 413 149 443 q 153 365 153 372 q 148 345 151 357 q 144 331 144 333 q 169 250 144 322 q 178 204 172 233 q 213 114 188 165 q 256 47 224 92 q 272 35 263 43 q 282 18 278 26 q 367 -24 311 1 q 408 -31 372 -25 q 415 -34 410 -32 q 422 -36 419 -36 q 668 108 540 -36 q 678 110 671 110 q 782 72 683 110 q 818 103 797 72 q 842 139 829 121 q 867 161 851 147 m 124 835 q 93 856 104 851 q 86 844 92 851 q 117 829 110 829 q 124 835 124 829 m 188 763 q 185 771 188 767 q 135 798 164 775 q 106 821 107 821 q 101 819 101 821 l 101 819 q 97 818 101 818 q 82 832 89 818 q 78 825 78 828 q 114 785 78 819 q 168 731 158 743 q 175 731 171 731 q 188 763 188 749 m 143 725 q 140 733 143 728 q 143 725 135 733 m 168 711 l 161 718 l 150 718 q 164 704 157 704 q 168 711 164 707 m 78 775 q 67 783 74 778 q 61 789 61 788 q 78 775 65 776 m 150 660 q 146 669 150 665 q 129 674 136 669 q 119 678 122 678 l 107 678 q 140 638 115 671 q 150 660 150 657 m 44 704 l 44 715 l 39 721 l 31 718 l 31 707 q 44 704 42 707 m 136 597 l 136 614 l 132 614 l 132 597 l 136 597 m 31 600 q 17 611 25 604 q 31 600 22 599 m 14 510 q 3 517 6 517 q -1 510 3 514 l 14 510 m 203 942 q 189 932 197 932 q 190 954 189 954 q 203 942 196 954 m 683 531 q 665 425 683 493 q 644 335 646 351 q 620 326 632 338 q 603 314 608 314 q 580 330 600 314 q 551 350 560 346 q 513 364 543 354 q 503 372 510 365 q 493 378 497 378 q 476 366 489 378 q 460 353 464 354 q 454 340 458 347 q 439 301 439 322 q 460 263 439 278 q 506 232 482 249 q 529 222 506 232 q 553 190 553 211 q 544 165 553 182 q 511 146 540 160 q 464 131 478 131 q 393 143 436 131 q 381 153 389 147 q 303 243 332 174 q 278 358 278 301 q 274 390 278 368 q 269 414 269 411 q 276 531 269 489 q 294 583 283 549 q 306 636 297 601 q 346 729 328 697 q 393 788 364 761 q 426 806 415 806 q 435 804 431 806 q 439 803 439 803 q 444 810 444 808 q 438 826 444 814 q 431 843 432 838 q 450 835 444 835 q 468 844 454 835 q 485 853 482 853 q 586 828 506 853 q 610 810 600 824 q 665 676 643 763 q 667 642 665 665 q 679 601 672 628 q 683 531 683 581 m 639 656 q 638 665 639 658 q 636 671 636 671 q 629 661 626 671 q 635 656 631 658 l 639 656 m 644 476 q 617 500 640 485 q 644 476 617 488 m 563 517 l 563 517 l 563 517 l 563 517 m 535 611 q 531 663 535 646 q 499 736 525 688 q 451 792 468 792 q 415 763 453 792 q 335 621 374 729 q 299 458 299 519 q 303 433 299 440 q 335 457 315 439 q 342 472 338 464 q 358 479 346 479 q 367 475 360 479 q 440 425 396 472 q 461 415 449 415 l 483 415 q 500 433 493 415 q 506 454 503 443 q 531 538 526 503 q 535 611 535 572 m 581 428 q 551 460 571 439 l 542 460 q 540 452 542 458 q 538 439 538 446 q 581 428 567 428 m 617 385 q 596 394 615 385 q 617 385 607 385 m 543 390 q 529 397 536 397 q 543 390 535 390 m 415 339 q 401 346 408 346 q 411 331 401 338 q 415 339 414 333 m 333 383 q 326 392 333 386 q 321 390 325 392 q 315 388 317 388 q 322 385 315 388 q 333 383 328 382 m 404 272 q 314 325 374 290 l 314 310 q 343 235 313 296 q 404 272 401 260 z "},"R":{"ha":768,"x_min":-24,"x_max":685,"o":"m 685 83 q 668 61 685 65 q 603 43 644 54 q 578 32 597 42 q 556 22 560 22 q 539 21 551 22 q 522 19 526 19 q 514 24 519 19 q 506 28 508 28 q 502 26 503 28 q 497 25 501 25 q 481 35 488 25 q 464 51 468 49 q 419 81 449 63 q 361 119 397 90 q 360 131 361 124 q 344 142 354 133 q 335 167 342 150 q 319 49 319 150 l 319 -19 q 318 -61 319 -47 q 311 -69 315 -64 q 308 -94 308 -104 q 290 -100 289 -100 q 281 -96 286 -100 q 272 -92 275 -92 q 260 -97 268 -92 q 249 -101 253 -101 q 192 -119 229 -107 q 150 -140 149 -140 q 122 -127 143 -140 q 96 -106 100 -114 q 83 -82 92 -97 q 50 -40 74 -67 q 14 -19 32 -31 q -12 11 -10 -4 q -14 128 -11 49 q -18 146 -14 131 q -21 163 -21 157 q -12 171 -12 167 q -17 174 -12 172 q -21 179 -21 175 q -19 183 -21 182 q -17 186 -17 185 q -21 194 -18 189 q -21 206 -22 200 q -14 217 -18 210 q -16 231 -14 221 q -18 246 -18 240 q -12 257 -18 249 q -7 269 -7 265 l -24 525 l -24 669 q -20 686 -24 672 q -17 708 -17 700 q -14 758 -17 715 q -3 869 -12 793 q -10 881 -6 874 q -10 886 -10 883 q 0 897 -6 890 q 4 986 1 903 q 24 1063 7 1039 q 168 1106 72 1079 q 294 1119 238 1119 q 308 1117 297 1119 q 324 1115 318 1114 q 460 1060 376 1117 q 479 1038 465 1050 q 518 1019 492 1032 q 554 983 529 1007 q 589 943 568 971 q 614 889 599 925 q 626 775 626 847 q 614 710 626 736 q 575 615 603 676 q 503 519 549 582 q 504 508 504 528 q 479 503 501 507 q 468 490 468 500 q 494 417 468 472 q 505 400 499 411 q 538 332 511 389 q 571 271 551 303 q 601 214 582 251 q 619 196 608 208 q 685 83 685 83 m 371 1047 l 371 1057 q 337 1085 353 1086 q 292 1088 321 1085 l 289 1078 q 318 1057 296 1075 q 347 1039 340 1039 q 371 1047 358 1039 m 311 1035 q 282 1063 304 1043 q 244 1085 256 1085 q 194 1075 208 1085 q 258 1028 215 1058 q 256 1018 256 1025 l 268 1018 q 311 1035 282 1018 m 239 1017 q 214 1032 229 1022 q 190 1056 208 1035 q 171 1071 175 1071 q 119 1043 140 1071 q 126 1032 121 1039 q 179 992 175 992 q 239 1017 178 992 m 158 968 q 131 1004 157 986 q 103 1036 106 1022 q 94 1035 99 1036 q 88 1033 89 1033 q 158 968 133 979 m 99 965 l 96 975 l 92 974 l 94 965 l 99 965 m 49 1011 l 44 1013 l 42 1006 l 46 1004 l 49 1011 m 135 828 l 131 828 l 126 807 l 132 807 l 135 828 m 643 88 l 643 99 q 635 111 643 103 q 626 121 628 119 q 579 196 603 165 q 539 275 567 222 q 528 286 538 279 q 522 297 519 293 q 478 383 525 300 q 429 500 429 472 q 442 517 429 513 q 465 528 463 526 q 526 593 493 550 q 564 653 556 632 q 565 667 564 658 q 599 782 599 726 q 589 869 599 824 q 558 940 583 901 q 501 999 532 978 q 454 1013 482 1004 q 404 1029 408 1029 q 397 1026 401 1029 q 389 1021 392 1022 q 317 1008 361 1018 q 256 990 288 1000 q 203 965 224 981 q 174 921 172 942 q 176 901 174 915 q 176 881 178 888 q 171 829 171 819 l 171 750 q 167 735 171 746 q 164 721 164 724 q 167 712 164 717 q 169 704 169 707 q 168 689 169 699 q 168 675 167 679 q 172 638 168 665 q 175 608 175 611 l 175 451 q 174 415 175 456 q 174 365 172 382 q 177 340 174 358 q 181 319 181 321 l 164 0 q 165 -100 161 -85 q 183 -95 171 -99 q 213 -82 194 -92 q 260 -67 231 -78 q 271 -57 267 -62 q 294 253 278 49 q 299 315 300 297 q 294 381 297 338 q 307 389 311 389 q 332 383 325 389 q 339 354 333 372 q 463 140 382 282 q 510 58 476 108 q 546 50 521 50 q 643 88 556 50 m 131 617 q 107 633 121 624 q 128 610 110 618 q 131 617 128 613 m 25 696 l 25 706 q 10 714 17 714 q 8 708 10 713 q 7 701 7 703 q 25 696 13 696 m 136 536 q 101 572 124 549 q 118 547 108 561 q 136 536 128 533 m 53 603 q 7 663 39 649 l 4 643 q 53 603 22 628 m 26 568 q 7 583 14 579 q 26 568 14 567 m 17 525 q 8 538 17 529 q 7 525 7 536 l 17 525 m 25 444 q 13 454 19 456 q 14 449 13 453 q 15 444 15 446 l 25 444 m 28 339 l 21 346 q 28 339 21 339 m 132 200 q 126 206 132 206 q 132 200 132 206 m 39 233 q 21 251 32 249 q 39 233 25 242 m 131 78 q 85 113 114 90 q 128 63 108 72 q 129 69 128 64 q 131 78 131 74 m 39 69 q 21 92 28 86 l 21 82 q 39 69 33 69 m 468 779 q 453 701 468 743 q 428 664 444 690 q 435 636 426 661 q 423 645 431 638 q 411 653 415 653 q 372 634 408 653 q 332 615 335 615 q 315 624 324 615 q 307 643 306 632 q 308 744 313 696 q 297 847 303 796 q 336 889 318 863 q 347 893 347 893 q 432 850 371 893 q 447 842 439 849 q 468 779 468 807 m 388 739 q 361 764 379 749 l 361 751 q 388 739 371 747 m 407 713 q 389 718 401 718 q 404 703 396 703 q 407 713 407 707 m 390 686 q 376 694 386 694 q 363 693 374 694 q 347 692 351 692 l 347 678 q 353 668 347 675 q 390 686 375 674 z "},"S":{"ha":740,"x_min":-67,"x_max":654,"o":"m 654 935 q 614 886 654 928 q 561 826 568 840 q 536 804 551 819 q 521 826 528 804 q 485 863 517 842 q 440 883 453 883 q 397 865 419 883 q 364 826 374 847 q 350 774 350 801 q 374 697 350 735 q 422 624 399 660 q 436 586 426 610 q 507 500 467 557 q 521 483 513 494 q 581 390 544 450 q 592 346 583 375 q 606 318 597 338 q 621 225 622 250 q 585 64 618 117 q 436 -56 546 3 q 382 -71 418 -61 q 313 -92 315 -92 q 253 -82 322 -92 q 221 -76 239 -79 q 157 -57 213 -74 q 114 -29 139 -51 q 76 0 100 -21 q 0 78 44 29 q -67 169 -67 147 q -37 191 -67 172 q -1 217 -8 210 q 11 222 3 218 q 43 256 28 239 q 85 288 76 288 q 149 247 97 288 q 182 221 163 243 q 177 219 182 221 q 169 214 172 217 q 211 168 182 199 q 213 172 211 169 q 213 182 211 176 q 276 244 263 222 q 310 324 310 296 q 289 378 310 356 q 199 489 260 417 q 135 540 178 506 q 121 568 132 550 q 75 613 104 583 q 39 664 61 629 q 8 771 13 729 q 4 783 7 774 q 1 797 1 793 q 8 819 1 799 q 15 850 14 840 q 65 978 22 914 q 181 1083 111 1047 q 188 1092 183 1088 q 258 1117 213 1100 q 266 1123 260 1117 q 276 1129 272 1129 q 286 1124 279 1129 q 297 1119 293 1119 q 354 1115 315 1118 q 393 1106 368 1114 q 453 1068 413 1092 q 496 1060 469 1067 q 647 950 546 1022 q 654 935 654 944 m 396 1072 q 393 1078 393 1075 q 344 1093 375 1093 q 332 1092 342 1093 q 318 1090 322 1090 q 328 1074 318 1082 q 343 1067 338 1067 q 396 1072 354 1067 m 310 1060 q 278 1097 289 1097 q 238 1078 264 1097 q 283 1039 257 1056 q 310 1060 310 1050 m 260 1026 q 225 1053 247 1033 q 208 1076 221 1063 q 179 1050 197 1071 q 154 1031 161 1044 q 221 989 183 1010 q 235 1004 235 1001 q 210 1028 235 1015 q 182 1044 185 1042 l 186 1049 l 193 1049 q 246 1017 211 1039 q 260 1026 251 1021 m 200 954 l 200 961 q 140 1024 189 986 q 125 1015 133 1019 l 125 1006 q 200 954 150 975 m 186 929 q 181 938 189 932 q 186 929 182 933 m 139 965 q 107 994 110 996 q 103 990 106 994 q 99 985 100 986 q 139 965 108 967 m 176 907 q 150 918 167 913 q 171 890 163 901 q 176 907 178 903 m 79 872 q 68 885 76 876 q 58 897 60 894 q 49 888 54 893 q 79 872 57 875 m 144 799 q 114 818 146 808 q 142 790 124 808 q 144 799 142 796 m 619 929 q 609 947 619 935 q 589 958 599 958 q 585 957 586 958 q 582 956 585 956 q 572 961 575 956 q 550 983 563 969 q 540 1003 547 990 q 515 1021 535 1007 q 492 1035 494 1035 q 487 1031 489 1035 q 482 1028 485 1028 q 419 1051 422 1051 q 398 1048 417 1051 q 372 1043 379 1044 q 351 1032 358 1042 q 344 1021 350 1026 q 337 1026 343 1021 q 326 1032 331 1032 q 317 1029 325 1032 q 265 993 297 1018 q 256 989 263 992 q 224 944 229 957 q 208 911 218 931 q 204 881 207 899 q 171 774 171 789 q 169 767 171 771 q 167 760 167 763 q 183 697 167 771 q 276 501 208 579 q 308 453 288 483 q 372 386 340 419 q 433 299 418 333 q 436 288 433 294 q 446 272 439 282 q 454 217 454 232 q 404 125 454 163 q 361 103 388 118 q 354 92 360 99 q 346 97 351 92 q 338 103 340 101 q 308 106 325 106 q 294 104 304 106 q 282 104 283 104 q 164 174 233 104 q 149 165 157 169 q 107 124 142 161 q 85 103 107 124 q 72 83 71 92 q 88 65 82 78 q 94 50 93 53 q 215 -47 154 -15 q 258 -56 232 -50 q 307 -68 314 -68 q 382 -46 318 -68 q 446 -21 406 -40 q 511 28 499 17 q 560 74 550 57 q 571 106 564 86 q 592 208 592 147 q 582 293 592 263 q 557 369 575 319 q 544 400 553 382 q 529 418 538 407 q 447 536 521 449 q 419 568 436 547 q 392 621 411 586 q 376 651 388 633 q 322 767 322 706 q 349 850 322 819 q 375 878 358 861 q 406 901 390 890 q 433 910 417 910 q 538 844 468 910 q 583 887 547 850 q 619 929 619 924 m 429 210 q 407 286 429 242 q 401 290 406 289 q 392 292 410 292 q 396 286 392 290 q 400 279 400 282 q 392 271 400 275 q 342 306 375 283 q 336 288 333 296 q 376 269 350 282 q 403 250 385 263 q 401 244 404 249 l 394 244 q 336 271 374 257 q 389 228 365 243 l 385 224 q 357 240 375 225 q 338 258 347 249 q 321 264 332 260 q 315 252 321 261 q 308 240 308 243 q 349 202 308 238 q 389 164 389 167 q 379 154 388 154 q 338 188 368 154 q 307 224 314 213 q 286 218 299 224 q 260 189 276 207 q 225 161 247 179 q 247 146 225 158 q 274 133 269 133 l 282 133 q 275 146 285 139 q 260 156 260 156 l 260 163 q 269 167 263 163 q 306 132 307 132 q 313 135 310 132 q 275 179 299 149 q 272 194 275 185 q 281 196 275 197 q 286 178 282 189 q 344 129 310 161 q 396 153 368 138 q 415 178 400 156 q 429 210 429 201 m 150 200 q 146 217 150 213 q 107 249 125 240 q 89 250 89 257 q 124 204 89 253 q 118 203 122 203 q 71 246 74 246 q 57 239 69 246 q 51 228 56 235 q 121 168 76 206 q 150 200 150 196 m 111 160 q 43 219 54 219 q 21 203 38 219 l 79 142 q 75 136 79 140 q 40 167 61 140 q 13 196 18 193 q -19 165 -19 175 q 4 132 -19 154 q 53 104 36 103 l 61 104 q 92 136 67 111 q 111 160 111 157 m 46 133 q 43 125 46 131 q 4 157 18 140 l 4 165 q 13 163 7 165 q 46 133 19 150 z "},"T":{"ha":738,"x_min":-25,"x_max":656,"o":"m 300 60 l 296 60 l 296 71 l 300 71 l 300 60 m 656 985 q 650 966 656 982 q 644 944 644 950 q 636 839 636 897 q 638 792 636 782 q 561 758 610 781 q 542 754 554 757 q 500 726 524 747 q 494 625 494 667 l 494 539 q 491 505 494 536 q 488 471 488 474 q 493 417 488 442 q 497 364 497 404 q 492 346 497 356 q 497 342 497 347 q 496 329 497 340 q 496 304 496 317 q 489 226 493 282 q 488 196 488 201 q 492 188 492 189 l 492 31 q 467 13 486 25 q 453 -8 464 4 q 354 -65 421 -25 q 326 -93 350 -69 q 303 -111 308 -111 q 293 -106 297 -111 q 176 21 253 -31 q 186 154 179 65 q 179 165 186 153 q 188 200 185 174 q 190 242 189 221 q 188 261 192 246 q 193 271 189 265 q 197 407 197 415 q 199 467 196 449 q 203 501 203 485 q 197 536 203 513 q 192 561 192 560 q 193 582 192 568 q 194 601 194 596 q 190 604 196 604 q 160 585 196 604 q 93 575 133 571 q 40 632 78 599 q -10 679 -4 674 q -21 703 -19 690 q -25 810 -25 746 l -12 925 q -3 931 -7 931 q 9 924 0 931 q 22 917 18 917 q 93 944 29 917 q 136 956 108 947 q 189 981 160 965 q 218 990 200 983 q 346 1043 265 1013 q 360 1057 350 1049 q 489 1110 464 1110 q 494 1108 493 1110 q 499 1107 496 1107 q 517 1118 501 1107 q 536 1124 525 1124 q 545 1122 539 1124 q 554 1121 551 1121 q 556 1106 558 1114 q 596 1046 575 1076 q 632 1004 626 1004 q 639 1006 635 1004 q 644 1008 643 1008 q 651 1003 650 1004 q 656 985 656 979 m 593 1008 q 572 1040 585 1019 q 546 1074 558 1060 q 515 1097 526 1097 q 497 1090 513 1097 q 475 1082 482 1083 l 475 1074 q 494 1058 486 1068 q 513 1033 511 1036 q 517 1024 514 1031 q 550 990 529 1014 q 560 988 563 988 q 578 997 564 988 q 593 1008 592 1006 m 538 978 q 457 1075 457 1075 q 418 1058 449 1075 q 383 1038 388 1042 q 417 1003 396 1025 q 446 961 428 986 q 469 946 460 946 q 538 978 482 946 m 449 940 q 371 1031 424 968 q 310 1010 333 1017 q 307 1006 307 1008 q 392 904 351 956 q 449 940 440 919 m 376 894 q 356 925 367 907 q 322 964 353 931 q 285 997 290 997 q 252 985 276 997 q 228 964 228 972 q 301 879 256 933 l 297 875 l 292 875 q 204 958 203 958 q 184 951 200 958 q 165 939 168 944 q 238 864 238 875 q 231 853 238 857 q 213 864 218 857 q 202 881 208 871 q 172 913 196 890 q 142 936 149 936 q 113 924 135 936 l 113 914 q 140 881 122 903 q 151 858 144 872 q 185 821 164 846 l 376 894 m 165 818 q 140 851 150 833 q 114 887 136 860 q 85 914 92 914 q 68 904 81 914 q 51 888 56 894 q 135 801 138 801 q 165 818 157 801 m 624 969 q 606 982 611 982 q 521 947 600 982 q 406 885 482 925 q 317 846 360 861 q 171 788 267 826 q 149 771 169 779 q 144 767 146 769 q 141 741 143 758 q 139 722 139 724 q 149 617 139 696 q 219 646 174 626 q 279 675 240 657 q 301 686 286 679 q 331 694 333 694 q 343 678 342 694 q 343 646 346 665 q 340 626 340 622 q 340 442 340 442 q 344 417 342 436 q 347 396 347 399 q 345 381 347 393 q 343 365 343 368 l 343 307 l 321 -8 q 322 -20 321 -10 q 324 -35 324 -31 l 321 -37 l 335 -37 q 460 40 389 -3 q 468 94 468 83 l 468 164 q 464 171 468 165 q 464 217 464 189 q 469 307 464 243 q 475 367 475 367 q 469 410 475 369 q 463 454 463 451 q 474 561 463 500 q 474 578 475 567 q 474 636 471 617 q 478 717 478 656 q 475 729 478 718 q 475 744 474 739 q 483 754 476 751 q 519 769 496 760 q 546 775 531 771 q 592 797 576 789 q 615 822 615 811 q 624 969 618 846 m 242 554 q 222 574 233 569 l 222 565 q 242 554 233 554 m 315 492 q 310 485 310 492 q 313 478 310 482 q 315 475 315 475 q 315 492 321 481 m 124 615 q 118 643 124 626 q 117 611 117 640 q 124 615 124 611 m 235 397 q 226 413 232 403 q 222 401 225 413 q 235 397 228 397 m 311 286 q 306 281 308 283 q 310 274 307 278 q 311 286 311 275 m 226 300 l 222 301 l 219 294 l 222 293 l 226 300 m 306 128 l 301 128 l 299 114 l 303 114 l 306 128 m 233 153 l 233 153 l 233 153 l 233 153 m 229 157 q 214 174 222 171 q 211 168 214 172 q 229 157 221 158 z "},"U":{"ha":828,"x_min":-14,"x_max":706,"o":"m 706 783 q 701 757 706 781 q 696 722 697 733 q 693 594 693 696 l 693 324 q 691 313 693 321 q 688 301 689 304 q 556 4 672 125 q 503 -49 539 -17 q 488 -54 497 -49 q 457 -74 478 -60 q 404 -93 422 -89 q 338 -101 372 -101 q 310 -100 335 -101 q 281 -99 285 -99 q 217 -78 256 -99 q 185 -53 203 -71 q 159 -26 164 -29 q 141 -10 154 -22 q 103 26 128 1 q 72 44 92 31 q 61 74 69 56 q 22 157 33 111 q 7 231 14 193 q -6 323 3 244 q -14 418 -14 401 l -14 694 q -10 726 -14 697 q -7 758 -7 756 l -7 835 q 1 883 -7 851 q 15 918 10 915 q 78 929 21 921 q 116 947 78 929 q 161 964 154 964 q 181 953 179 964 q 169 936 175 939 q 131 928 157 935 q 101 911 121 922 q 153 857 110 900 q 183 811 163 842 q 193 807 186 807 q 228 822 204 807 q 214 836 222 826 q 150 922 188 863 q 156 926 151 924 q 179 896 164 915 q 197 885 186 892 q 229 842 213 872 q 231 826 231 840 q 232 826 231 826 q 236 825 233 825 q 269 835 229 825 q 271 840 271 836 q 236 888 271 843 q 193 953 201 932 q 204 961 200 961 q 274 890 228 961 q 322 826 296 868 q 324 786 329 807 q 319 725 331 764 q 324 708 321 728 q 326 657 328 669 q 324 649 326 654 q 322 642 322 644 q 325 622 322 636 q 328 601 328 608 q 326 579 328 594 q 324 561 324 564 l 324 363 q 329 317 325 360 q 333 297 329 306 q 373 318 350 293 q 399 361 396 343 q 413 513 413 446 q 408 574 413 518 q 401 610 408 585 q 394 638 394 635 l 394 707 q 391 753 394 710 q 388 799 388 796 q 392 824 388 799 q 396 864 396 849 q 396 1028 396 1028 q 393 1040 397 1032 q 389 1050 389 1047 q 394 1064 389 1054 q 479 1096 436 1076 q 542 1125 542 1125 q 551 1117 547 1125 q 558 1103 557 1103 q 567 1115 568 1106 l 582 1115 q 638 1071 593 1115 q 691 1010 682 1026 q 700 950 700 993 l 700 856 q 703 819 700 853 q 706 783 706 786 m 622 1008 q 579 1054 597 1033 q 558 1081 569 1068 q 531 1094 547 1094 q 517 1089 528 1094 q 501 1081 506 1083 q 496 1069 496 1078 q 506 1050 496 1058 q 585 989 588 989 q 622 1008 599 989 m 561 978 q 518 1021 554 989 q 485 1067 489 1049 q 475 1065 481 1067 q 468 1064 469 1064 l 468 1053 q 517 985 483 1029 q 536 967 525 979 q 561 978 554 972 m 457 1025 q 449 1040 454 1032 l 443 1039 l 457 1025 m 431 1011 q 421 1019 431 1019 l 418 1006 q 426 1001 421 1001 q 428 1006 426 1003 q 431 1011 431 1008 m 447 933 q 421 967 439 949 q 417 960 417 963 q 447 933 417 951 m 450 751 q 418 792 439 771 q 450 751 422 774 m 513 643 q 501 661 515 651 q 513 643 501 653 m 447 669 q 426 701 438 692 l 422 688 q 447 669 435 675 m 465 651 q 463 658 465 653 q 461 654 460 658 q 465 651 463 651 m 165 800 q 153 826 165 813 q 132 847 143 836 q 78 899 88 899 q 67 889 64 899 q 111 826 72 881 q 140 789 138 789 q 165 800 147 789 m 40 872 l 40 876 l 29 879 l 29 875 l 40 872 m 29 836 l 29 844 l 25 844 l 25 836 l 29 836 m 681 774 q 678 797 681 776 q 675 821 675 818 l 675 904 q 671 971 675 950 q 644 979 661 979 q 606 963 636 979 q 600 954 603 957 q 551 933 582 946 q 544 799 551 926 q 547 710 546 767 q 544 644 547 685 q 542 594 542 610 q 544 578 542 589 q 546 561 546 567 q 540 533 543 551 q 543 490 539 528 q 538 306 549 419 q 529 278 533 294 q 488 188 521 225 q 411 151 454 151 q 379 154 424 151 q 368 163 375 157 q 355 165 363 163 q 331 186 347 168 q 314 210 315 204 q 301 469 301 272 l 301 539 q 301 589 301 592 l 299 592 l 299 807 q 290 815 297 808 q 167 772 228 793 q 147 700 147 763 q 152 656 147 697 q 157 611 157 614 q 152 560 157 608 q 147 508 147 511 l 147 175 q 153 151 147 172 q 158 119 158 129 q 156 65 156 101 q 174 15 157 57 q 193 -28 179 -1 q 239 -61 213 -50 q 346 -76 279 -76 q 408 -65 378 -76 q 503 -15 446 -53 q 549 32 519 3 q 583 71 563 46 q 615 122 599 96 q 638 182 633 154 q 643 194 640 188 q 650 232 646 210 q 664 335 663 275 q 665 432 665 383 q 667 525 667 465 l 667 653 q 674 738 667 686 q 677 758 674 744 q 681 774 681 771 m 508 307 q 504 322 514 315 q 508 307 504 311 m 503 275 q 428 363 503 288 q 422 349 422 344 q 497 263 422 333 q 503 275 503 268 m 49 701 q 19 742 44 708 q 18 729 19 739 q 17 711 17 719 q 19 713 17 711 q 26 714 22 714 q 49 701 29 714 m 432 278 q 426 296 429 283 q 426 316 431 304 q 413 331 421 328 q 404 313 404 314 q 415 297 404 308 q 432 278 428 282 m 24 692 q 11 703 18 703 l 11 692 l 24 692 m 28 649 q 14 665 22 663 l 11 651 q 17 650 11 651 q 28 649 24 649 m 122 538 l 119 544 l 115 543 l 119 538 l 122 538 m 493 238 l 493 246 q 469 264 485 246 q 442 296 444 294 q 435 294 440 297 q 457 261 436 292 q 471 231 472 242 q 475 221 475 224 q 471 217 475 221 q 431 250 454 217 q 393 303 400 296 q 372 283 390 297 q 347 269 354 269 q 340 271 344 269 q 335 272 335 272 l 335 256 q 350 200 333 247 q 378 187 350 197 q 415 176 406 176 q 442 182 408 176 q 472 205 450 183 q 493 238 493 226 m 40 583 q 14 615 26 604 l 14 599 q 32 583 22 582 l 40 583 m 36 511 q 19 532 26 529 l 17 518 q 36 511 24 515 m 36 442 q 17 467 31 451 q 11 453 11 454 q 22 444 11 447 q 36 442 32 440 m 49 313 q 21 343 40 329 l 21 325 q 49 313 31 322 m 35 292 l 28 300 l 25 299 l 31 289 l 35 292 m 125 110 l 121 114 l 118 111 l 122 107 l 125 110 z "},"V":{"ha":849,"x_min":-26,"x_max":774,"o":"m 774 1000 q 768 992 774 997 q 761 983 763 986 q 744 903 750 946 q 722 769 735 832 q 700 665 711 717 q 675 544 690 625 q 664 451 671 511 q 644 346 656 401 q 613 222 628 283 q 590 93 592 139 q 589 60 590 65 q 575 31 586 42 q 574 19 575 28 q 542 -3 547 -3 q 537 -1 539 -3 q 532 0 535 0 q 439 -29 508 0 q 399 -40 425 -32 q 351 -67 382 -51 q 321 -21 342 -51 q 297 13 311 -4 q 228 75 272 31 q 199 158 221 86 q 200 172 200 163 q 146 313 200 172 q 119 399 139 347 q 106 458 117 417 q 81 524 106 460 q 68 576 78 540 q 4 792 38 663 q -1 803 1 796 q -7 819 -4 810 q -26 876 -26 854 q -3 908 -26 908 q 1 907 0 908 q 6 907 3 907 q 25 910 8 907 q 50 915 42 914 q 110 924 69 917 q 150 936 128 928 q 178 942 164 942 q 192 938 188 942 q 272 843 214 903 q 289 751 276 810 q 300 722 290 744 q 308 696 308 706 q 315 686 311 693 q 347 571 322 651 q 356 521 353 556 q 375 469 358 493 q 375 481 375 469 q 381 489 375 479 q 390 547 382 514 q 399 575 399 579 q 413 668 399 590 q 419 721 417 688 q 446 861 429 769 q 461 944 451 889 q 485 1082 464 989 q 518 1100 494 1089 q 639 1135 631 1135 q 653 1132 646 1135 q 653 1118 651 1126 q 681 1094 665 1110 q 751 1032 747 1032 q 760 1039 753 1032 q 774 1000 774 1011 m 708 1011 q 636 1089 682 1038 q 631 1101 633 1094 q 622 1107 628 1107 q 594 1093 610 1107 q 650 1032 596 1089 q 654 1017 651 1026 l 651 1013 q 596 1065 619 1033 q 576 1092 578 1092 q 559 1085 567 1092 q 544 1076 551 1078 q 633 985 574 1046 q 708 1011 665 986 m 540 1069 l 540 1074 l 535 1074 l 535 1069 l 540 1069 m 611 979 l 539 1054 q 594 979 544 1044 l 611 979 m 532 993 l 529 1001 l 526 1000 l 529 993 l 532 993 m 585 944 l 585 951 q 551 975 572 960 q 579 939 558 958 l 585 944 m 579 919 q 518 994 558 936 q 507 1010 507 1010 q 517 1021 507 1017 q 499 1040 507 1035 q 490 1000 490 1000 q 560 899 490 994 q 572 893 564 892 q 579 919 579 921 m 563 856 q 550 874 563 861 q 529 894 532 892 q 489 953 514 917 q 483 924 488 950 q 500 919 497 924 q 557 844 521 896 q 563 856 563 850 m 556 828 q 539 850 556 831 q 515 883 518 876 q 507 899 511 889 q 482 918 496 906 l 479 906 q 506 869 489 893 q 550 817 522 844 q 553 821 550 817 q 556 828 556 825 m 542 771 q 472 856 521 804 q 467 839 467 846 q 496 797 467 828 q 536 761 525 765 q 542 771 538 765 m 469 808 q 466 813 468 810 q 463 817 464 815 l 460 808 q 469 808 464 803 m 532 735 q 517 757 532 744 q 499 774 508 764 q 472 800 490 783 l 469 789 q 525 724 493 763 q 532 735 532 729 m 522 704 q 465 779 501 731 q 453 786 460 786 q 447 756 447 765 q 454 747 447 757 q 456 736 454 743 q 478 715 464 729 q 454 761 454 750 q 458 768 454 767 q 519 692 479 740 q 521 696 519 692 q 522 704 522 700 m 496 693 l 490 699 l 488 697 l 493 690 l 496 693 m 517 665 q 510 679 513 678 q 503 679 507 679 q 517 665 510 667 m 468 693 q 443 726 454 728 q 451 706 442 718 q 468 693 461 694 m 515 642 q 503 647 508 647 q 515 642 506 642 m 449 681 q 440 689 444 689 q 444 684 442 688 q 449 681 447 681 m 507 611 q 450 679 488 640 q 490 625 451 674 q 504 606 494 618 q 507 611 506 608 m 500 579 q 439 658 481 613 q 433 640 433 643 q 497 560 453 608 q 499 565 497 560 q 500 579 500 569 m 218 854 q 192 890 204 872 q 158 914 174 914 q 142 894 150 914 q 126 904 122 904 q 103 897 129 904 l 103 889 q 121 860 104 883 q 147 832 139 832 q 175 840 153 832 q 158 864 171 846 q 146 886 146 882 q 147 890 146 889 l 154 890 q 178 867 158 889 q 203 846 197 846 q 218 854 210 846 m 493 529 q 429 613 472 558 q 424 599 424 601 q 450 563 424 596 q 490 514 485 521 l 493 529 m 488 482 q 461 529 479 499 q 436 558 451 540 q 424 567 431 568 q 418 558 422 564 q 464 497 446 524 q 485 465 469 483 q 486 470 485 465 q 488 482 488 475 m 126 826 q 103 862 125 831 q 72 893 81 893 q 38 878 57 893 q 118 821 64 858 q 126 826 121 822 m 481 436 q 429 522 481 443 q 417 532 424 526 q 411 518 411 521 q 472 426 411 522 q 478 426 474 426 q 479 429 478 426 q 481 436 481 432 m 735 972 q 732 983 735 982 q 725 986 729 985 q 718 988 721 988 q 702 983 715 988 q 682 978 689 978 q 669 969 678 974 q 619 951 653 964 q 607 939 610 947 q 547 711 567 807 q 549 701 546 707 q 553 693 553 694 q 542 679 547 688 q 537 649 542 671 q 532 617 532 628 q 535 606 532 613 q 538 599 539 600 q 525 592 538 597 q 531 564 525 596 q 518 554 526 561 q 510 475 515 524 q 494 401 503 447 q 483 353 490 383 q 464 221 475 308 q 443 197 461 197 q 414 207 418 197 q 389 310 406 244 q 347 461 372 371 q 333 524 342 481 q 310 600 324 550 q 301 658 308 621 q 281 700 293 672 q 260 774 268 736 q 253 799 257 786 q 239 822 250 813 q 171 808 214 825 q 100 783 114 786 l 100 769 q 110 749 100 764 q 124 725 121 729 q 139 669 128 704 q 168 579 157 628 q 196 479 182 518 q 211 394 200 450 q 236 308 219 364 q 258 256 244 289 q 286 171 267 219 q 317 88 303 129 q 357 -24 332 47 q 382 -10 364 -12 q 410 -6 396 -8 q 550 38 464 6 q 563 64 554 47 q 567 103 563 78 q 590 217 578 164 q 601 249 594 229 q 644 464 631 372 q 676 663 647 485 q 710 806 690 717 q 735 972 735 938 m 471 404 q 410 497 471 401 q 408 487 410 493 q 406 478 406 481 q 468 397 406 465 q 471 404 471 401 m 464 376 l 407 439 q 401 429 401 433 q 425 399 401 426 q 461 356 453 367 l 464 376 m 458 333 q 458 349 463 340 q 455 348 458 349 q 451 343 451 347 q 458 333 451 339 m 460 315 q 458 323 460 318 q 456 328 456 328 q 450 326 454 326 q 431 340 446 326 q 408 358 415 354 q 406 365 408 360 q 404 374 404 371 q 406 384 404 376 q 408 394 408 392 q 389 421 399 404 q 385 415 385 417 q 411 329 385 382 q 451 292 421 313 q 460 315 460 303 m 85 653 q 76 671 85 663 q 85 653 76 668 m 444 267 q 433 287 444 271 q 417 306 421 303 l 417 297 q 436 250 415 288 q 444 267 444 267 m 118 511 l 118 519 q 107 532 115 528 q 118 511 113 517 m 269 92 l 263 97 l 261 96 l 267 90 l 269 92 z "},"W":{"ha":1160,"x_min":-44,"x_max":1079,"o":"m 1079 994 q 1072 975 1079 992 q 1064 951 1065 958 q 1063 911 1060 932 q 1047 782 1067 868 q 1043 746 1046 769 q 1036 726 1040 739 q 1018 654 1036 721 q 996 553 1000 588 q 990 486 996 531 q 969 404 983 460 q 960 324 967 378 q 936 231 951 293 q 935 208 936 224 q 925 172 935 201 q 901 122 911 122 q 893 124 894 122 l 756 75 q 747 75 750 75 q 717 119 733 96 q 686 147 700 142 q 638 268 667 190 q 617 332 635 290 q 613 326 617 332 q 546 103 597 286 q 528 15 542 78 q 506 -37 524 3 q 475 -50 503 -42 q 448 -59 467 -51 q 426 -67 429 -67 q 424 -65 424 -67 q 421 -64 424 -64 q 416 -67 419 -64 q 410 -71 413 -71 q 407 -69 407 -71 q 404 -68 407 -68 q 364 -75 396 -68 q 358 -78 363 -75 q 350 -82 353 -82 q 329 -58 342 -82 q 310 -24 328 -56 q 276 17 301 -12 q 256 32 269 22 q 235 54 243 42 q 214 90 226 67 q 213 104 214 96 q 168 218 197 143 q 139 279 157 239 q 117 344 132 301 q 106 365 113 351 q 65 483 92 404 q 60 514 64 494 q 29 599 51 542 q -26 742 -11 688 q -42 769 -32 750 q -44 786 -43 772 q -37 792 -43 789 q -14 800 -31 794 q 76 817 38 810 q 96 825 78 817 q 114 828 108 831 q 114 835 115 831 q 111 843 111 842 q 125 851 111 851 q 163 817 136 851 q 193 774 178 796 q 213 757 203 763 q 228 756 219 757 q 238 746 238 754 q 238 731 236 738 q 246 714 242 725 q 279 614 247 710 q 292 596 285 607 q 315 528 300 572 q 322 521 318 525 q 331 494 329 507 q 333 489 331 493 q 342 500 342 492 q 342 517 342 519 q 347 524 343 519 q 350 551 349 535 q 354 560 354 557 l 354 621 q 364 658 354 610 q 367 684 364 667 q 371 731 369 701 q 392 833 379 767 q 401 894 394 854 q 410 917 401 903 q 439 936 419 924 q 493 950 457 940 q 538 968 508 957 q 568 971 547 971 q 600 933 574 971 q 639 896 626 896 q 647 896 642 896 q 660 897 653 897 q 668 829 660 874 q 675 819 671 826 q 728 679 692 775 q 732 685 729 679 q 739 728 736 700 q 747 835 740 764 q 744 853 749 840 q 753 861 749 856 q 757 876 757 867 q 764 943 757 904 q 769 1003 764 964 q 781 1035 772 1017 q 800 1032 796 1031 q 789 1047 789 1047 q 796 1060 789 1054 q 886 1092 826 1067 q 908 1096 894 1092 q 950 1115 935 1115 q 958 1115 956 1115 q 1008 1058 996 1071 q 1060 1015 1036 1029 q 1079 994 1079 1004 m 1008 1008 q 985 1032 997 1018 q 961 1075 978 1047 q 942 1092 949 1092 q 928 1088 932 1092 q 913 1075 919 1079 q 933 1053 919 1068 q 954 1024 943 1038 q 986 997 974 997 q 1008 1008 1000 997 m 958 992 q 925 1033 942 1013 q 890 1067 897 1067 q 846 1047 888 1067 q 892 1006 857 1038 q 922 979 919 979 q 958 992 926 979 m 896 976 q 868 1013 896 978 q 835 1036 858 1019 q 892 971 867 979 l 896 976 m 829 979 q 800 1026 821 1001 q 799 1024 800 1026 q 797 1018 797 1021 q 807 997 797 1010 q 829 979 817 990 m 875 943 q 872 953 879 947 q 874 948 872 951 q 875 943 875 944 m 871 929 l 861 940 l 858 938 l 868 926 l 871 929 m 869 896 q 864 908 871 900 q 810 986 847 935 q 796 994 806 992 q 790 983 790 983 q 793 971 790 975 q 839 924 810 954 q 840 918 839 922 q 867 892 856 906 q 869 896 868 893 m 864 874 q 789 960 808 942 l 786 947 q 829 904 810 932 q 860 860 844 882 q 862 864 860 860 q 864 874 864 868 m 858 838 q 814 903 858 838 q 785 933 801 921 q 779 908 779 915 q 818 868 779 908 q 857 826 832 849 q 857 831 857 828 q 858 838 858 835 m 785 876 l 785 883 l 781 883 l 781 876 l 785 876 m 854 807 q 837 826 854 807 q 790 869 819 844 q 843 806 808 847 q 836 799 842 803 q 820 810 829 799 q 808 824 811 822 q 843 771 817 808 q 854 807 854 803 m 797 836 q 778 858 788 850 q 776 856 778 857 q 775 853 775 856 q 797 836 775 850 m 808 825 l 799 836 l 796 835 l 806 824 l 808 825 m 778 832 l 772 835 l 771 832 l 776 829 l 778 832 m 779 801 q 767 810 769 810 q 779 801 769 806 m 839 758 q 828 743 828 750 q 836 733 828 736 q 838 746 836 738 q 839 758 839 754 m 783 767 q 771 782 782 774 q 783 767 774 768 m 797 754 l 788 764 l 786 761 l 796 753 l 797 754 m 832 717 q 813 726 815 726 q 826 703 818 718 q 832 717 832 708 m 808 706 q 763 763 793 731 q 761 757 763 761 q 760 750 760 753 q 808 706 760 749 m 603 885 q 558 949 596 906 q 538 944 551 947 l 538 938 q 576 900 551 925 q 581 891 578 896 q 589 882 583 886 q 593 882 592 882 q 599 883 596 882 q 603 885 603 885 m 801 679 q 765 722 778 715 l 760 721 q 801 679 774 706 m 807 669 l 804 678 l 801 676 l 803 669 l 807 669 m 815 663 l 813 668 l 810 667 l 813 663 l 815 663 m 572 872 l 572 879 q 524 939 550 901 l 514 939 q 482 922 501 936 q 538 861 501 901 q 543 860 540 860 q 572 872 544 860 m 817 635 q 768 692 797 653 q 760 696 760 696 q 756 685 756 690 q 781 654 756 676 q 814 622 793 642 q 815 626 814 622 q 817 635 817 631 m 779 632 q 763 647 776 639 q 779 632 771 636 m 810 596 q 804 610 813 603 q 789 622 796 617 q 810 596 800 603 m 517 857 q 475 901 517 858 q 457 918 460 918 q 438 913 451 918 q 468 888 449 904 q 503 849 479 874 l 513 849 q 517 857 517 853 m 775 607 q 744 640 775 617 q 743 635 744 638 q 758 621 746 635 q 775 607 764 613 m 806 547 q 751 610 806 556 l 751 603 q 768 569 751 588 q 800 535 785 551 q 806 547 806 546 m 506 806 q 503 810 504 807 l 496 810 q 504 800 500 800 q 506 806 504 803 m 497 783 q 428 869 476 817 q 419 860 419 863 q 449 824 419 857 q 494 768 483 783 q 496 773 494 768 q 497 783 497 778 m 801 517 q 793 521 796 521 l 789 515 q 799 501 792 510 l 801 517 m 489 747 l 489 758 q 440 814 489 761 q 431 832 438 821 q 417 840 428 836 l 414 831 q 446 801 426 819 q 468 769 453 792 q 472 758 469 765 q 489 747 475 750 m 486 735 q 449 771 465 744 q 414 814 429 803 q 407 793 407 794 q 479 710 407 793 q 486 735 486 724 m 413 765 q 408 769 408 765 q 413 765 408 765 m 478 682 q 474 688 478 679 q 399 753 447 713 l 399 738 q 411 722 399 735 q 431 700 426 706 q 463 654 439 685 q 468 654 464 654 q 472 656 472 656 q 478 682 478 678 m 465 642 q 460 639 464 642 l 465 633 q 467 638 467 633 q 465 642 468 640 m 464 613 q 464 619 464 617 q 436 643 442 636 q 400 694 433 646 q 394 696 397 694 q 392 690 392 693 q 407 665 392 681 q 428 644 428 646 q 458 601 438 629 q 464 613 464 604 m 460 578 l 390 668 q 385 654 389 663 l 457 563 q 460 578 457 572 m 1049 974 l 1049 986 l 1039 986 q 975 963 1021 974 q 917 946 929 953 q 893 915 897 935 q 892 889 892 903 q 882 863 886 878 q 846 685 867 779 q 844 661 846 676 q 826 571 836 626 q 828 532 825 553 q 822 524 825 529 q 817 392 819 475 q 810 383 817 392 l 800 383 q 790 411 794 390 q 785 439 788 425 q 751 522 774 468 q 743 565 749 539 q 703 679 719 628 q 694 717 701 693 q 629 864 675 774 q 597 861 604 864 q 561 843 586 857 q 549 828 557 836 q 531 826 544 825 q 508 749 521 794 q 475 551 486 631 q 464 417 472 500 q 449 324 453 371 q 443 306 446 317 q 432 199 440 267 q 424 182 431 189 l 417 182 q 411 188 415 183 q 390 254 403 214 q 382 290 388 267 q 339 388 367 324 q 308 490 329 425 q 221 711 308 492 q 210 721 218 718 q 101 690 172 713 q 69 663 92 681 q 79 631 71 654 q 119 518 94 592 q 129 478 124 503 q 153 432 139 461 q 225 222 176 361 q 258 150 236 199 q 260 140 258 146 q 286 67 269 114 q 308 19 300 33 q 340 -26 321 -6 q 344 -39 340 -31 q 383 -50 356 -50 q 471 -29 432 -50 q 488 -21 478 -26 q 521 74 506 14 q 524 106 521 85 q 561 246 538 157 q 588 310 572 269 q 594 351 589 324 q 611 394 603 368 q 619 436 614 410 q 617 458 619 432 q 629 474 617 474 q 640 467 632 474 q 649 456 649 460 q 678 354 651 432 q 694 269 683 326 q 710 233 700 257 q 751 122 724 196 q 769 104 760 104 q 874 139 772 104 q 896 149 883 142 q 917 242 904 185 q 935 324 925 274 q 946 397 939 350 q 961 469 954 433 q 972 551 972 517 q 978 576 972 560 q 983 594 983 593 q 1013 704 990 638 q 1011 719 1011 710 q 1022 778 1015 740 q 1036 844 1028 797 q 1040 932 1038 876 q 1044 956 1040 940 q 1049 974 1049 972 m 456 536 q 453 546 456 542 q 383 638 426 578 q 378 615 378 618 q 379 604 378 606 q 444 535 444 535 q 443 531 444 532 l 435 531 q 412 552 425 539 q 379 586 399 565 l 379 572 q 447 489 428 528 q 456 536 456 543 m 168 769 q 151 783 151 793 q 168 769 151 768 m 193 742 q 188 749 192 744 q 185 747 188 749 q 179 747 182 747 q 159 759 176 747 q 140 774 142 771 q 143 797 139 781 q 118 824 138 810 q 122 814 122 818 q 110 804 122 807 q 89 796 93 799 l 89 788 q 150 724 117 760 q 171 731 157 726 q 193 742 181 733 m 447 488 q 443 483 447 483 q 425 500 436 483 q 413 518 418 508 q 376 557 388 547 q 372 543 372 547 q 382 524 372 531 q 446 456 404 499 q 447 488 449 468 m 444 426 q 442 438 444 433 q 411 478 426 457 q 371 517 392 503 q 365 504 365 503 q 372 485 365 494 q 421 438 413 438 q 424 439 424 438 q 425 439 422 439 q 434 431 429 439 q 442 422 439 424 q 444 426 442 424 m 131 718 l 131 725 q 92 767 103 749 q 75 796 88 776 q 63 796 71 796 q 13 774 42 796 q 74 707 14 746 q 61 728 75 713 q 42 749 42 747 q 29 772 29 765 q 40 776 29 776 q 54 771 49 776 q 53 761 51 764 q 101 711 86 711 q 131 718 93 711 m 438 397 q 433 410 438 406 q 364 471 408 432 q 354 460 360 467 q 432 382 379 431 q 438 397 438 392 m 429 349 l 429 365 q 347 446 404 394 q 353 414 353 424 q 418 349 360 407 l 429 349 m 385 361 l 382 364 l 381 363 l 383 360 l 385 361 m 426 333 q 409 342 419 336 q 385 358 399 349 q 424 322 410 331 q 425 327 424 324 q 426 333 426 331 m 422 297 q 394 326 422 301 l 394 314 q 417 286 393 299 q 422 297 422 300 m 415 281 q 410 276 410 281 q 415 261 410 269 q 415 281 419 269 z "},"X":{"ha":857,"x_min":-39,"x_max":778,"o":"m 778 210 q 774 200 778 206 q 768 174 775 190 q 742 169 760 174 q 629 117 622 117 q 622 119 628 117 q 614 122 617 122 q 611 122 611 122 q 608 121 611 121 q 575 149 611 121 q 535 174 560 156 q 503 228 524 193 q 457 288 486 247 l 450 288 q 427 231 432 257 q 406 175 422 206 q 386 149 397 167 q 314 -12 347 72 q 263 -21 271 -18 q 214 -42 233 -28 q 204 -42 211 -42 q 158 -68 199 -50 q 103 -86 118 -86 q 78 -78 86 -86 q -10 -6 74 -74 q -26 18 -15 3 l 42 179 q 31 197 38 185 q 36 200 31 200 q 47 192 36 200 q 57 201 57 196 q 54 210 56 206 q 65 218 58 211 q 100 290 74 242 q 104 314 107 300 q 118 349 115 319 q 131 353 119 351 q 154 392 144 369 q 169 424 164 415 q 168 440 168 431 l 168 449 q 204 481 190 453 q 226 525 215 503 q 172 597 206 546 q 117 681 144 639 q 83 717 106 692 q 67 743 78 726 q 29 788 61 753 q -4 825 17 800 q -39 883 -39 875 q -21 911 -39 908 q 17 914 -8 911 q 81 944 36 922 q 122 964 119 964 q 200 906 122 964 q 229 879 229 885 q 226 872 229 875 q 231 871 225 871 q 233 871 233 871 q 236 872 233 872 q 267 847 244 872 q 290 818 279 832 q 333 756 307 801 q 360 722 336 750 l 363 724 q 376 782 367 743 q 376 789 378 783 q 374 797 374 794 q 404 865 397 806 q 424 929 413 886 q 435 992 428 949 q 442 1012 439 999 q 456 1047 444 1025 q 451 1063 456 1047 q 490 1082 461 1074 q 539 1097 515 1090 q 581 1115 550 1101 q 614 1128 613 1128 q 660 1094 621 1128 q 710 1052 700 1061 q 739 1028 719 1043 q 753 1015 754 1015 q 760 1017 756 1015 q 772 1018 765 1018 q 778 1008 778 1013 q 757 964 778 1007 q 733 913 736 921 q 701 817 722 879 q 575 554 650 681 q 565 514 565 538 q 593 461 565 496 q 635 417 611 447 q 722 293 664 350 q 724 285 722 290 q 778 210 778 211 m 697 1026 q 651 1071 697 1036 q 614 1106 625 1089 l 600 1103 q 679 1018 651 1050 q 688 1017 682 1017 q 697 1026 697 1026 m 654 1008 l 654 1019 q 613 1060 628 1043 q 575 1090 582 1090 q 536 1074 567 1090 q 563 1033 542 1061 q 601 997 588 997 q 626 1002 604 997 q 654 1008 647 1007 m 564 994 q 544 1024 563 997 q 533 1044 539 1033 q 515 1061 524 1061 q 510 1061 511 1061 q 506 1060 507 1060 q 564 994 508 1047 m 499 981 l 490 986 l 489 983 l 497 978 l 499 981 m 550 960 l 550 968 q 478 1028 525 990 q 454 971 453 979 l 454 958 q 467 964 468 964 q 492 942 469 964 q 526 908 519 914 q 529 913 526 910 q 518 935 526 921 q 486 976 497 956 q 478 984 485 979 q 472 992 472 989 q 481 1014 472 994 q 544 957 538 957 q 550 960 550 957 m 540 933 l 540 943 q 528 947 532 947 q 540 933 528 939 m 508 871 q 460 938 490 896 q 450 940 451 940 q 444 921 449 933 q 457 918 451 921 q 504 860 471 896 q 506 864 504 860 q 508 871 508 868 m 499 842 q 443 908 482 865 l 438 903 l 438 896 q 446 892 440 894 q 499 842 451 863 m 492 818 q 466 848 492 822 q 431 876 440 874 l 428 867 q 486 806 428 858 q 492 818 492 815 m 478 789 q 424 843 457 813 l 424 828 q 443 804 424 826 q 474 772 454 792 l 478 789 m 468 754 q 419 808 439 783 q 414 810 418 810 q 408 799 408 796 q 461 746 408 799 q 468 754 464 749 m 456 732 l 406 783 q 401 776 401 779 q 423 748 401 772 q 453 718 444 724 q 454 723 453 718 q 456 732 456 728 m 444 693 l 444 701 q 401 756 428 719 l 392 756 l 392 743 q 414 721 399 739 q 438 692 424 711 q 444 693 440 692 m 439 675 q 394 725 439 672 q 388 724 388 728 q 433 664 388 711 q 439 675 439 674 m 207 863 l 207 869 q 169 896 201 875 q 143 918 164 899 q 119 933 128 933 q 112 932 115 933 q 108 931 108 931 q 138 896 121 921 q 164 856 150 876 q 207 863 189 858 m 142 854 q 115 893 122 878 q 82 926 100 926 q 7 892 71 926 q 32 856 22 867 q 79 829 53 833 l 79 838 q 61 865 75 847 q 47 886 47 883 q 50 892 47 888 q 81 866 60 889 q 111 843 101 843 q 142 854 122 843 m 751 199 q 715 264 733 239 q 665 328 701 283 q 640 353 656 336 q 597 426 628 379 q 582 439 590 431 q 542 497 569 458 q 533 517 533 507 q 572 592 533 519 q 631 712 617 679 q 672 804 646 744 q 706 903 682 838 q 747 990 721 935 q 733 995 743 992 q 718 999 722 999 q 700 994 713 999 q 692 988 697 993 q 685 982 688 982 q 678 985 682 982 q 672 989 675 989 q 617 976 668 989 l 617 967 q 624 956 617 965 q 631 943 631 947 q 629 936 631 938 l 621 936 q 594 965 610 953 q 560 907 557 938 q 546 894 553 903 q 549 881 549 901 q 528 853 533 872 q 519 818 524 835 q 501 775 510 796 q 493 739 492 750 q 482 728 485 733 q 451 636 471 697 q 446 590 451 619 q 433 583 443 582 q 417 593 422 583 q 382 656 406 617 q 331 718 364 676 q 296 778 319 740 q 249 826 286 792 q 247 835 247 829 q 231 843 239 843 q 205 834 226 843 q 181 825 183 825 q 174 825 178 825 q 167 826 168 826 q 138 824 160 826 q 122 815 125 822 q 139 796 126 807 q 132 789 138 793 q 115 798 128 789 q 99 804 101 807 q 188 704 131 769 q 224 658 201 688 q 260 599 236 638 q 289 565 272 586 q 308 533 296 551 q 344 483 321 515 q 351 465 351 472 q 342 421 351 450 q 324 375 325 381 q 328 367 328 371 q 324 360 329 361 q 313 358 318 360 q 308 340 311 353 q 302 331 307 338 q 297 322 297 325 q 304 310 297 315 q 300 304 300 306 l 289 304 q 165 58 235 190 q 156 47 161 54 q 106 -50 106 -36 q 108 -57 106 -54 l 121 -57 q 171 -39 132 -57 q 196 -24 181 -32 q 242 -3 211 -15 q 299 11 249 0 q 390 196 319 72 q 399 208 393 200 q 433 304 400 222 q 440 325 436 313 q 447 336 443 329 q 447 347 450 343 q 454 354 447 353 q 463 354 457 354 q 476 350 474 354 q 549 240 506 306 q 625 150 564 219 q 706 181 649 146 q 722 183 711 183 q 732 190 726 186 q 751 199 744 192 m 331 454 q 317 467 326 461 q 328 450 319 456 q 331 454 328 451 m 324 442 q 254 522 324 440 q 246 508 246 508 q 258 503 253 508 q 260 494 260 499 q 315 425 276 471 q 324 442 324 439 m 271 451 q 244 493 264 467 l 236 493 q 244 475 239 486 q 271 451 261 457 m 293 425 q 279 442 288 431 l 279 433 q 293 425 288 425 m 297 383 q 266 430 297 388 q 228 472 235 472 q 222 464 232 472 q 289 372 246 432 q 297 383 297 379 m 243 408 q 213 446 226 435 l 207 444 q 243 408 233 411 m 268 367 q 246 404 261 381 l 246 397 q 268 367 246 393 m 278 347 q 274 360 276 346 q 278 347 274 356 m 263 343 l 258 346 l 257 344 l 260 340 l 263 343 m 269 331 l 267 333 l 264 332 l 267 328 l 269 331 m 257 304 l 257 311 q 193 410 238 346 l 183 410 l 183 403 q 213 357 183 400 q 231 340 219 350 q 246 311 236 329 q 257 304 251 304 m 238 296 q 185 378 204 343 q 175 385 181 385 q 169 371 169 375 q 194 338 169 371 q 221 303 204 324 q 238 296 228 294 m 243 272 q 219 276 235 274 q 235 263 224 263 q 243 272 238 267 m 229 247 q 182 299 203 265 q 150 338 161 332 q 143 329 143 332 q 178 280 143 325 q 221 235 213 235 q 229 247 224 240 m 210 222 l 135 310 q 133 309 135 310 q 132 306 132 308 q 196 221 132 297 q 203 218 199 218 q 207 215 207 218 l 210 222 m 203 194 l 124 285 q 118 278 118 279 q 131 254 118 272 q 168 203 143 236 q 192 181 182 181 q 203 194 194 181 m 168 179 l 158 196 l 154 194 l 165 179 l 168 179 m 186 158 l 186 168 q 172 172 176 172 l 172 165 q 186 158 181 157 m 174 144 q 133 193 158 158 q 97 238 108 228 q 92 225 92 228 q 92 219 92 222 q 136 171 113 201 q 171 129 146 156 l 174 144 m 165 115 l 85 206 l 82 192 q 157 101 103 158 q 165 115 165 110 m 150 83 l 71 179 l 65 174 q 96 140 75 163 q 144 82 110 118 l 150 83 m 139 64 q 64 153 139 69 q 57 156 58 156 q 49 138 49 146 q 86 88 49 132 q 126 43 106 65 q 139 64 139 61 m 53 108 q 40 118 47 118 q 53 108 40 110 m 69 83 q 57 100 65 96 q 69 83 60 88 m 83 71 l 81 76 l 76 76 l 79 71 l 83 71 m 122 39 q 85 67 110 49 q 117 29 101 33 q 122 39 117 33 m 108 13 q 36 96 108 26 q 28 79 28 89 q 72 29 28 71 q 100 -3 76 21 q 108 13 108 13 m 68 8 l 61 14 q 68 8 61 8 m 89 -21 l 89 -11 q 74 0 83 -8 l 74 -8 q 89 -21 74 -8 m 79 -39 q 64 -14 79 -29 q 39 15 43 8 q 31 18 33 18 l 31 8 q 60 -29 53 -10 q 79 -39 67 -33 m 60 904 l 56 899 l 53 900 l 56 906 l 60 904 z "},"Y":{"ha":828,"x_min":-32,"x_max":779,"o":"m 779 1031 q 769 994 779 1018 q 761 983 767 992 q 739 931 753 965 q 706 853 733 917 q 678 803 696 836 q 633 714 665 774 q 619 679 629 701 q 535 518 535 513 q 538 508 535 517 q 542 496 542 500 q 543 483 542 492 q 543 472 543 475 q 542 458 543 471 q 539 439 540 444 q 531 346 539 413 q 525 249 525 286 l 525 196 q 524 53 525 32 q 519 -35 526 -6 q 508 -42 518 -40 q 499 -42 504 -42 q 494 -50 494 -43 q 492 -60 493 -57 q 461 -71 482 -64 q 436 -87 453 -78 q 361 -108 411 -93 q 354 -79 356 -104 q 354 -60 356 -74 q 350 -58 353 -60 q 347 -58 347 -58 q 344 -68 342 -62 q 349 -79 349 -76 q 344 -96 349 -82 l 335 -96 q 285 -46 333 -94 q 251 3 251 -12 q 261 53 251 -11 q 260 78 263 64 q 257 92 257 92 l 257 147 q 268 261 257 167 q 268 279 269 267 q 267 300 267 294 q 267 319 267 307 q 268 340 268 335 q 265 397 265 347 l 265 454 q 271 504 265 481 q 274 510 271 506 q 276 517 276 514 q 192 628 276 526 q 154 669 179 640 q 142 697 151 679 q 94 775 128 724 q 43 831 76 793 q 13 875 33 847 q -6 885 6 883 q -17 910 -1 893 q -32 932 -32 928 q 31 964 -32 944 q 67 969 42 965 q 83 985 72 975 q 94 978 94 978 q 108 981 97 978 q 122 985 119 985 q 156 975 147 985 q 250 888 175 951 q 249 875 250 888 q 286 832 261 860 q 353 749 307 804 q 360 753 357 749 q 360 776 363 763 q 450 950 406 828 q 503 1057 468 986 q 504 1069 506 1065 q 501 1079 501 1076 q 617 1133 535 1097 q 656 1136 625 1136 q 694 1115 671 1136 q 751 1049 711 1092 q 765 1047 757 1049 q 779 1031 779 1043 m 682 1082 l 682 1089 q 658 1107 661 1108 q 682 1082 663 1100 m 689 1046 q 663 1082 686 1049 q 640 1108 646 1108 q 621 1101 635 1108 q 617 1094 617 1099 q 647 1031 636 1053 l 656 1031 q 689 1046 669 1032 m 633 1025 q 619 1058 633 1035 q 601 1092 601 1090 l 592 1092 q 560 1075 581 1086 q 613 1021 594 1053 q 621 1017 617 1017 q 633 1025 633 1017 m 593 1013 q 542 1067 589 1035 q 538 1064 542 1064 q 565 1038 546 1056 q 593 1013 585 1021 m 575 986 q 519 1042 560 1008 l 517 1035 q 567 967 532 1010 q 575 986 575 974 m 551 924 q 507 1006 531 958 q 503 1006 507 1007 q 500 1007 500 1004 q 500 993 500 993 q 546 918 515 968 l 551 924 m 539 901 l 492 989 q 488 981 488 983 q 494 957 488 969 q 506 943 499 953 q 529 892 513 925 q 535 890 531 890 q 539 901 539 900 m 493 928 l 493 942 q 483 954 493 950 l 483 938 l 493 928 m 500 924 l 497 926 l 494 925 l 497 922 l 500 924 m 518 849 l 518 856 q 498 895 518 860 q 467 940 478 931 q 463 922 467 938 q 469 919 467 922 q 468 907 468 915 q 485 878 472 894 q 515 844 497 861 q 518 849 515 847 m 501 807 q 478 844 501 810 q 446 889 456 879 q 439 872 439 875 q 465 835 439 869 q 496 793 475 818 q 501 807 501 797 m 489 767 l 489 781 q 450 832 489 776 q 431 857 446 843 q 429 853 431 856 q 429 847 429 850 q 440 822 429 836 q 460 799 458 801 q 483 763 467 786 l 489 767 m 479 740 q 468 758 479 739 q 424 828 453 783 l 417 828 q 413 815 413 819 q 438 769 413 806 q 467 731 453 750 l 474 731 q 476 735 474 732 q 479 740 479 738 m 464 707 q 446 740 463 718 q 425 769 426 768 q 404 793 419 783 q 461 703 422 761 q 464 707 461 704 m 454 688 q 432 720 443 697 q 408 750 421 743 l 408 744 q 425 714 408 742 q 442 683 442 686 q 431 671 442 674 q 403 706 422 679 q 385 726 388 726 q 379 724 382 726 q 413 674 390 689 q 440 658 424 668 q 454 688 444 669 m 199 892 q 178 906 192 897 q 140 935 140 928 q 151 947 140 942 q 132 964 133 964 q 103 956 113 964 q 168 881 164 881 q 179 883 169 881 q 192 885 189 885 q 199 892 199 890 m 144 879 q 129 901 142 889 q 108 919 110 918 q 82 953 99 933 q 71 953 72 953 q 51 950 69 953 q 39 939 40 949 q 110 868 113 868 q 144 879 117 868 m 86 867 q 50 901 75 881 q 35 906 44 901 q 17 931 32 933 q 14 924 14 928 q 63 863 51 863 q 86 867 71 863 m 738 1017 q 735 1021 738 1019 q 726 1024 732 1022 q 718 1024 721 1024 q 694 1017 724 1024 q 675 1015 688 1017 q 663 1009 671 1013 q 649 1003 656 1006 q 617 985 638 996 q 594 974 607 983 q 574 922 588 954 q 519 800 553 881 q 513 775 513 776 q 515 765 513 772 q 517 753 518 757 q 506 751 508 753 q 486 700 492 728 q 467 661 472 689 q 456 621 460 628 q 447 615 451 614 q 414 650 422 639 q 401 651 408 650 q 349 726 383 676 q 313 760 333 739 q 267 821 289 790 q 211 867 233 858 l 85 839 l 85 829 q 133 760 100 803 q 188 688 174 710 q 235 611 204 661 q 261 582 244 601 q 267 569 263 576 q 303 532 279 557 q 321 503 310 519 q 350 476 321 503 q 381 446 361 467 q 383 415 383 440 l 372 301 q 376 290 372 300 q 378 275 379 279 q 374 260 376 269 q 371 7 372 250 l 376 -75 l 388 -75 q 428 -61 401 -76 q 444 -44 433 -56 q 494 -17 474 -25 q 496 26 494 -12 l 497 136 q 494 181 497 132 q 493 253 492 229 q 501 449 494 299 q 501 478 501 458 q 505 485 503 479 q 506 492 507 490 q 528 565 504 526 q 574 642 551 604 q 592 688 579 658 q 628 747 592 689 q 635 769 631 756 q 701 906 658 818 q 708 940 699 915 q 726 981 718 961 q 738 1017 738 1014 m 301 458 q 296 465 301 460 q 296 456 296 464 q 301 458 299 456 m 325 304 q 324 315 325 311 q 325 304 321 313 m 294 192 q 285 203 292 201 q 294 192 286 200 m 347 108 l 343 119 l 340 119 l 344 108 l 347 108 z "},"Z":{"ha":789,"x_min":-7,"x_max":699,"o":"m 697 101 q 680 83 697 90 q 625 63 663 76 q 606 60 618 61 q 588 50 600 56 q 504 22 560 40 q 463 3 490 15 q 440 0 454 3 q 418 -7 432 -3 q 392 -24 410 -12 q 342 -37 375 -26 q 301 -62 328 -47 q 260 -78 292 -68 q 206 -100 257 -78 q 150 -122 154 -122 q 133 -119 147 -122 q 114 -114 118 -115 q 104 -108 110 -112 q 97 -107 101 -108 q 19 -8 72 -74 q 3 2 14 -7 q -7 26 -7 11 q 15 181 -7 56 q 35 207 24 189 q 53 256 40 225 q 106 351 71 288 q 146 443 118 381 q 158 461 151 449 q 179 499 165 474 q 224 593 200 526 q 265 688 238 625 l 115 640 q 108 642 114 640 q 100 643 101 643 q 82 656 99 643 q 39 707 58 674 q 14 728 36 711 q 1 772 1 736 q 3 803 1 772 q 6 847 6 835 q 7 860 6 851 q 8 874 8 869 q 17 974 8 910 q 33 976 19 975 q 42 997 36 981 l 54 997 q 65 989 56 997 q 74 989 67 989 q 160 1010 81 989 q 274 1033 199 1017 q 442 1092 329 1049 q 535 1121 521 1121 q 543 1117 538 1121 q 551 1113 549 1113 q 558 1117 554 1113 q 565 1121 563 1121 q 597 1089 572 1121 q 638 1040 628 1049 q 663 1032 644 1040 q 669 990 667 1029 q 674 893 671 958 q 676 874 674 889 q 679 856 679 858 q 660 839 679 851 q 646 900 646 872 l 646 964 q 638 999 646 985 q 644 1010 636 1003 l 644 1019 q 617 1013 635 1018 q 560 985 599 1001 q 514 975 544 983 q 504 968 510 972 q 449 947 486 961 q 439 946 446 949 q 407 926 429 939 q 347 911 388 922 q 271 875 322 899 q 218 865 253 874 q 158 844 183 857 q 144 829 144 839 q 139 721 139 782 l 139 693 q 144 692 140 692 q 206 706 147 692 q 265 719 264 719 q 268 719 268 719 q 271 718 268 718 q 289 723 274 718 q 311 729 304 728 q 339 764 321 744 q 338 742 342 756 q 344 740 339 740 q 397 763 353 740 q 436 778 421 775 q 458 782 451 782 q 474 769 474 782 q 467 755 474 767 q 457 736 460 743 q 460 718 458 731 q 454 719 458 719 q 392 582 446 719 q 363 507 382 556 q 325 401 347 472 q 300 363 314 399 q 282 313 290 338 q 204 158 249 243 q 199 146 201 154 q 193 122 196 138 q 163 92 163 115 q 164 83 163 88 q 153 54 158 74 q 147 1 147 25 l 147 -93 q 151 -94 149 -94 q 272 -51 160 -94 q 344 -14 296 -36 q 435 22 378 0 q 449 24 439 22 q 497 44 465 32 q 545 61 503 46 q 671 106 588 76 q 664 146 664 124 l 664 231 l 660 235 q 628 225 654 232 q 611 213 614 222 l 604 213 q 601 214 601 213 q 597 215 600 215 q 576 204 594 215 q 551 189 558 193 q 467 158 514 171 q 396 140 458 156 q 385 140 393 140 q 367 136 379 139 q 351 133 354 133 q 338 146 338 133 q 343 156 338 147 q 349 170 349 165 q 353 188 350 175 q 382 256 382 260 q 367 268 382 267 q 367 274 367 269 q 375 282 369 274 q 389 288 381 283 q 451 410 404 313 q 472 465 458 431 q 499 514 482 482 q 628 788 533 581 q 630 801 628 792 q 646 835 632 810 q 656 836 649 836 q 668 825 668 836 q 636 750 668 822 q 590 647 599 671 q 578 628 586 642 q 542 544 560 579 q 499 469 526 519 q 467 389 489 442 q 417 296 450 358 q 425 292 421 292 q 451 300 418 292 q 504 310 468 303 q 547 329 513 313 q 586 343 575 343 q 607 336 601 343 q 689 251 635 301 q 694 231 699 247 q 689 219 692 228 q 689 117 688 196 q 697 101 697 96 m 592 1063 l 589 1068 l 586 1068 l 589 1063 l 592 1063 m 608 1032 q 599 1044 604 1042 l 599 1036 q 608 1032 600 1029 m 596 1029 q 578 1056 586 1039 q 568 1081 571 1074 q 550 1104 561 1097 q 531 1094 544 1096 q 517 1085 518 1093 q 567 1028 531 1065 l 567 1024 q 554 1018 549 1018 q 527 1040 546 1018 q 501 1076 508 1063 q 483 1083 485 1083 q 438 1072 467 1083 q 435 1067 438 1071 q 449 1058 440 1064 q 474 1021 461 1039 q 499 992 493 992 q 515 997 501 992 q 533 1004 528 1003 q 567 1012 549 1007 q 596 1029 586 1017 m 476 989 q 451 1021 464 999 q 436 1049 444 1035 q 418 1063 428 1063 q 395 1053 413 1063 q 375 1040 378 1043 q 418 963 375 1040 q 451 972 435 967 q 476 989 474 979 m 413 960 q 390 982 399 965 q 347 1035 364 1035 q 321 1026 336 1035 q 304 1015 313 1021 q 329 969 329 979 q 342 961 333 968 q 347 946 343 956 q 358 933 351 942 q 413 960 379 939 m 342 931 q 339 935 340 932 q 315 960 328 946 q 308 982 314 968 q 276 1015 286 1015 q 222 1001 260 1015 l 222 994 q 225 981 222 1001 q 240 966 238 972 q 250 942 242 960 q 258 922 258 925 q 254 917 258 919 q 204 996 232 947 q 147 985 204 996 q 150 974 147 985 q 163 965 156 971 q 174 947 165 958 q 177 938 174 944 q 193 913 181 931 q 197 899 196 906 q 217 888 203 888 q 275 899 238 888 q 342 931 282 901 m 431 732 q 418 739 415 739 l 411 739 q 418 711 408 721 q 431 732 422 719 m 414 697 q 404 711 414 696 q 399 733 401 719 q 371 722 389 728 l 371 714 q 403 676 382 700 q 414 697 414 694 m 192 882 l 192 889 q 139 976 157 931 q 129 978 135 978 q 106 971 118 978 q 93 954 93 964 q 120 910 93 944 q 160 875 147 875 q 192 882 169 875 m 397 665 q 361 715 397 665 l 353 715 q 394 654 368 694 q 396 658 394 654 q 397 665 397 661 m 390 639 q 375 663 390 642 q 348 699 354 689 q 338 708 342 708 l 329 708 l 326 696 q 357 663 329 692 q 379 632 379 639 q 378 628 379 628 q 314 693 353 654 l 314 686 q 338 643 314 672 q 365 608 361 614 q 375 601 368 601 q 390 639 390 640 m 367 585 q 346 611 361 594 q 306 665 333 633 l 303 653 q 363 579 322 626 q 367 585 365 581 m 356 564 q 292 640 311 633 q 285 624 285 624 q 300 624 285 624 q 303 608 300 611 q 350 546 315 586 q 356 564 356 561 m 306 581 l 306 589 q 283 618 297 599 q 281 610 281 615 q 306 581 281 600 m 642 256 q 596 306 604 306 q 586 300 596 306 q 558 296 576 294 q 571 281 564 290 q 583 261 578 271 q 601 243 594 243 q 642 256 608 243 m 338 511 l 338 521 q 272 597 290 579 l 267 594 q 299 553 267 590 q 326 515 315 533 q 338 511 331 511 m 329 496 q 292 544 300 535 q 257 576 268 574 q 251 565 251 571 q 294 519 251 564 q 318 489 303 508 q 326 486 329 486 l 329 496 m 315 471 q 289 508 313 483 q 253 547 271 528 q 247 547 251 547 q 247 541 247 546 q 247 533 247 536 q 278 501 258 521 q 292 482 285 492 q 308 468 303 468 q 315 471 313 468 m 581 233 q 544 292 579 244 l 542 292 q 476 275 503 286 q 475 268 475 274 q 492 253 481 263 q 515 236 503 244 q 536 210 532 224 l 544 210 q 581 233 557 217 m 301 450 q 239 529 279 478 q 229 535 236 535 q 226 525 229 531 q 267 481 247 510 q 297 442 286 451 q 301 450 299 444 m 289 422 q 265 453 279 435 q 219 508 247 478 q 217 499 217 503 q 249 459 217 496 q 281 422 281 422 q 289 422 281 422 m 281 403 q 250 438 281 406 q 204 490 214 476 q 196 478 196 482 q 272 386 196 469 q 281 403 281 406 m 525 207 q 457 272 460 272 q 424 265 465 272 q 450 206 450 217 q 447 201 450 204 q 424 235 432 215 q 407 258 415 254 q 393 213 396 235 q 407 201 401 206 q 414 179 414 185 q 411 172 414 176 q 385 199 403 183 q 372 169 372 176 q 375 164 372 164 l 396 164 q 500 192 428 164 q 525 207 511 194 m 264 365 l 264 372 l 193 461 q 172 443 186 460 l 172 436 q 194 428 186 436 q 258 360 217 404 l 264 365 m 254 342 q 175 426 254 349 q 168 415 174 422 q 167 417 168 415 q 163 418 165 418 q 154 410 161 418 q 156 406 154 408 q 229 326 181 381 q 242 321 235 319 q 254 342 254 338 m 236 301 l 157 385 q 145 383 151 383 q 139 375 139 382 q 146 363 139 365 q 157 357 153 361 q 203 306 188 322 q 210 292 206 299 q 224 279 218 279 q 236 301 229 279 m 218 261 l 143 356 l 131 356 q 124 333 124 339 q 175 286 151 319 q 208 243 188 268 q 218 261 213 250 m 185 243 q 133 310 167 268 q 131 303 131 306 q 135 297 131 299 q 147 286 139 294 q 153 272 149 281 q 185 243 165 261 m 194 208 q 165 243 194 211 q 121 293 131 281 q 107 300 115 296 q 88 271 94 285 q 128 247 103 263 q 185 190 147 222 q 194 208 194 210 m 174 163 q 164 188 171 172 q 139 214 156 197 q 99 253 110 253 q 96 251 96 253 q 93 250 96 250 q 86 252 89 250 q 82 254 83 254 q 79 250 81 253 q 76 247 78 247 q 106 224 88 239 q 168 157 126 200 l 174 163 m 157 146 q 110 196 140 164 q 75 228 79 228 q 67 221 72 228 q 61 210 61 214 q 64 203 61 211 q 107 165 76 194 q 136 142 133 142 q 139 143 139 142 q 142 144 139 144 q 153 138 142 144 q 157 146 157 140 m 139 119 q 101 150 136 122 q 124 118 110 140 q 136 114 132 113 q 139 119 136 115 m 78 176 l 74 181 l 72 178 l 75 175 l 78 176 m 56 185 l 53 186 l 50 181 l 53 179 l 56 185 m 36 106 l 32 110 l 31 107 l 33 104 l 36 106 m 133 158 q 129 161 129 158 q 133 158 131 158 z "},"p":{"ha":463,"x_min":0,"x_max":0,"o":""},"q":{"ha":463,"x_min":0,"x_max":0,"o":""},"r":{"ha":463,"x_min":0,"x_max":0,"o":""},"s":{"ha":463,"x_min":0,"x_max":0,"o":""},"t":{"ha":463,"x_min":0,"x_max":0,"o":""},"u":{"ha":463,"x_min":0,"x_max":0,"o":""},"v":{"ha":463,"x_min":0,"x_max":0,"o":""},"w":{"ha":463,"x_min":0,"x_max":0,"o":""},"x":{"ha":463,"x_min":0,"x_max":0,"o":""},"y":{"ha":463,"x_min":0,"x_max":0,"o":""},"z":{"ha":463,"x_min":0,"x_max":0,"o":""},"":{"ha":463,"x_min":0,"x_max":0,"o":""},"":{"ha":463,"x_min":0,"x_max":0,"o":""},"":{"ha":463,"x_min":0,"x_max":0,"o":""},"":{"ha":463,"x_min":0,"x_max":0,"o":""}}}
